<?xml version="1.0" encoding="utf-8"?>
<!-- Generator: Adobe Illustrator 15.1.0, SVG Export Plug-In . SVG Version: 6.00 Build 0)  -->
<!DOCTYPE svg PUBLIC "-//W3C//DTD SVG 1.1//EN" "http://www.w3.org/Graphics/SVG/1.1/DTD/svg11.dtd">
<svg version="1.1" id="Layer_1" xmlns="http://www.w3.org/2000/svg" xmlns:xlink="http://www.w3.org/1999/xlink" x="0px" y="0px"
	 width="15px" height="24.623px" viewBox="0 0 15 24.623" enable-background="new 0 0 15 24.623" xml:space="preserve">
<g>
	<path fill="#FFFFFF" d="M7.145,24.608c0,0,0.164,0.052,0.21-0.036c0.032-0.062,0.97-0.369,1.502-0.539
		C8.963,24,9.054,23.97,9.117,23.951c0.086-0.332,0.095,0.055,0.101-0.031c0.003-0.038,0.013,0.033,0.044,0
		c0.039-0.117,0.078-0.076,0.127-0.002c0.047,0.097,0.109,0.152,0.198-0.006c0.075,0.013,0.165-0.041,0.258-0.012
		c0.082,0.174,0.185,0.168,0.308-0.022c0.109,0.011,0.227-0.015,0.349-0.034c0.122-0.024,0.24,0.064,0.376-0.049
		c0.124,0.052,0.266-0.095,0.395-0.065c0.133-0.02,0.275-0.146,0.402-0.087c0.135-0.051,0.269-0.08,0.398-0.107
		c0.072-0.023,0.137-0.059,0.193-0.107c0.947-0.813-0.463-5.09-0.463-5.09s-4.739-4.578-6.561-1.997
		c-1.82,2.581,1.293,8.093,1.293,8.093S6.899,24.238,7.145,24.608z"/>
	<path fill-rule="evenodd" clip-rule="evenodd" fill="#FFFFFF" d="M8.14,24.125c0.021,0.051-0.009,0.053,0.03,0.119
		c-0.016-0.004-0.027-0.025-0.039-0.004c0.033,0.005,0.064,0.072,0.032,0.094c-0.088-0.046-0.211-0.136-0.302-0.126
		c0.031,0.03-0.03,0.147-0.071,0.085c0.036,0.057-0.078,0.146-0.032,0.088c-0.086,0.014-0.118,0.032-0.171,0.027
		c-0.024-0.089-0.059-0.135-0.091-0.163c-0.015,0.037-0.021,0.013-0.053,0.009c0,0.053-0.023,0.158-0.06,0.1
		c0.012,0.064-0.011,0.052,0.033,0.067c-0.027,0.017-0.06,0.038-0.017,0.063c-0.065-0.012-0.008,0.061-0.055,0.022
		c-0.007,0.03,0.022,0.03,0.009,0.065c0.33-0.111,0.812-0.049,1.163-0.135c0,0.041,0.029,0.016,0.076,0.032
		c-0.021-0.083,0.001-0.095,0.026-0.18c0.222-0.097,0.433-0.208,0.598-0.37c-0.023,0.006-0.051-0.043-0.064-0.006
		c-0.051,0.018-0.152,0.064-0.267,0.098c-0.002-0.066-0.118-0.035-0.107-0.112c-0.082,0.027-0.094-0.058-0.154-0.024
		c0.041,0.013,0.004,0.074,0.062,0.044c0.011,0.078,0.04,0.067,0.067,0.135C8.629,24,8.591,23.966,8.438,23.939
		c0.004,0.072,0.039,0.119,0.065,0.174c-0.041-0.015-0.041,0.018-0.067,0.021c0.017-0.069-0.065,0.04-0.05-0.029
		c-0.047-0.018-0.023,0.047-0.066,0.034c0.001-0.018,0.008-0.028,0.016-0.039c-0.024,0.006-0.11,0.08-0.104-0.007
		c0.012,0.009,0.045,0.034,0.039-0.011C8.211,24.076,8.195,24.125,8.14,24.125z"/>
	<path fill-rule="evenodd" clip-rule="evenodd" fill="#515959" d="M6.318,0.06c0.271-0.014,0.484,0.125,0.676,0.154
		C7.373,0.27,7.868,0.22,8.286,0.271c0.173,0.021,0.349,0.021,0.501,0.05C9.279,0.41,9.501,0.689,9.776,0.977
		c0.062,0.007,0.107,0.028,0.165,0.038c0.109,0.199,0.168,0.443,0.235,0.679c0.271,0.071,0.626,0.125,0.866,0.038
		c-0.045,0.173-0.027,0.417-0.07,0.592c0.295,0.042,0.528,0.014,0.73-0.051c0.79,0.154,1.777,0.158,2.58,0.152
		C14.378,2.479,14.4,2.58,14.5,2.649c0.205,0.142,0.497,0.144,0.5,0.427c-0.126,0.223-0.307,0.404-0.611,0.382
		c-0.03,0.054-0.066,0.101-0.09,0.162c-0.199,0.079-0.337,0.241-0.492,0.353c-0.052,0.036-0.121,0.053-0.176,0.09
		c-0.234,0.16-0.408,0.355-0.633,0.498c-0.17,0.107-0.397,0.145-0.612,0.214c-0.072,0.023-0.144,0.064-0.213,0.075
		c-0.038,0.006-0.078-0.014-0.116-0.009C11.931,4.855,11.868,4.929,11.76,5c-0.127-0.07-0.245,0.044-0.415,0.009
		c-0.12,0.352-0.233,0.709-0.292,1.132c-0.135,0.096-0.255,0.209-0.361,0.336c0.041,0.129,0.071,0.268,0.127,0.386
		c-0.062,0.331,0.148,0.531,0.172,0.829c0.088,0.072,0.156,0.213,0.237,0.303c0.047,0.053,0.117,0.084,0.131,0.152
		c0.035,0.171-0.126,0.324-0.132,0.548c0.107,0.085,0.259,0.131,0.346,0.233c-0.036,0.133,0.016,0.248-0.004,0.4
		c0.054,0.104,0.179,0.145,0.256,0.227c-0.09,0.516,0.152,0.789,0.24,1.133c0.017,0.067,0.017,0.137,0.049,0.211
		c0.079,0.184,0.123,0.361,0.056,0.652c0.071,0.067,0.165,0.115,0.274,0.15c0.023,0.284,0.028,0.539,0.027,0.857
		c-0.002,0.231,0.072,0.485,0.053,0.678c-0.012,0.125-0.107,0.244-0.104,0.368c0.001,0.046,0.04,0.114,0.052,0.173
		c0.024,0.111,0.037,0.217,0.041,0.326c0.035,0.047,0.093,0.073,0.119,0.127c-0.158,0.223-0.055,0.536-0.134,0.768
		c0.034,0.035,0.072,0.066,0.096,0.11c-0.06,0.212-0.068,0.399-0.109,0.601c-0.06,0.294-0.206,0.439-0.235,0.723
		c0.08,0.123,0.146,0.261,0.245,0.367c0.024,0.098-0.015,0.191,0.019,0.287c0.016,0.047,0.066,0.077,0.081,0.122
		c0.073,0.237,0.006,0.533,0.032,0.794c0.063,0.049,0.122,0.104,0.182,0.155c-0.213,0.548-0.067,1.239-0.036,1.722
		c-0.184-0.015-0.354-0.01-0.497,0.054c-0.017,0.095,0.008,0.155-0.005,0.246c0.107,0.097,0.16,0.202,0.276,0.293
		c0.119,0.091,0.279,0.104,0.429,0.175c0.106,0.05,0.366,0.277,0.387,0.378c0.013,0.06-0.027,0.161-0.005,0.233
		c0.016,0.049,0.094,0.114,0.143,0.179c0.14,0.184,0.31,0.411,0.37,0.598c0.091,0.279-0.163,0.323-0.306,0.444
		c-0.066,0.057-0.105,0.131-0.182,0.181c-0.23,0.152-0.494,0.243-0.776,0.345c-0.111,0.21-0.308,0.456-0.532,0.531
		c-0.188,0.062-0.328-0.06-0.447-0.086c-0.33-0.071-0.581-0.16-0.836-0.27c-0.292-0.125-0.606-0.184-0.808-0.293
		c-0.045-0.023-0.075-0.083-0.122-0.1c-0.008,0.011-0.032,0.071-0.042,0.035c-0.052-0.135-0.059-0.165-0.161-0.271
		c0.014-0.026,0.004-0.065,0.033-0.101c0.059,0.025,0.043,0.004,0.092-0.02c-0.027,0.056,0.01,0.033,0.038,0.016
		c-0.009,0.038,0.024,0.072,0.074,0.045c0.015,0.048,0.061,0.068,0.097,0.098c-0.061,0.062,0.072,0.092,0.079,0.161
		c0.022-0.054,0.036-0.044,0.079-0.021c-0.027-0.065,0.099-0.082,0.074-0.137c0.011-0.131-0.176-0.357-0.271-0.525
		c0.035,0.027,0.04,0.057,0.064,0.004c0.09,0.064,0.178,0.179,0.299,0.178c0.035-0.081-0.033-0.039,0.02-0.102
		c0,0.037,0.019,0.027,0.062,0.043c0.017-0.265-0.361-0.48-0.589-0.458c-0.046,0.001,0.052,0.03-0.003,0.039
		c-0.036,0.003-0.009-0.05-0.035-0.055c-0.012,0.063-0.01,0.039-0.094,0.044c-0.012,0.068,0.076-0.007,0.076,0.032
		c-0.044,0.002-0.046,0.051-0.083,0.06c0.026-0.057-0.073-0.031-0.006-0.092c-0.079,0.022-0.063-0.055-0.047-0.068
		c-0.062,0.068-0.058-0.04-0.093,0.032c-0.081-0.164-0.163-0.087-0.23-0.225c0.025-0.003,0.024,0.02,0.037,0.028
		c0.002-0.041-0.026-0.067,0.02-0.089c-0.002,0.035-0.023,0.024-0.004,0.052c0.079-0.002,0.001-0.072,0.032-0.089
		c0.003,0.03,0.051,0.021,0.062,0.044c-0.017,0.011-0.088,0.027-0.044,0.062c0.037-0.046,0.051,0.026,0.093-0.032
		c0.001,0.02-0.008,0.047,0.01,0.053c0.009-0.062,0.13,0.032,0.182-0.013c-0.017,0.055,0.118,0.103,0.177,0.065
		c0.012,0.033-0.063,0.045-0.004,0.051c0.029-0.041,0.068,0.012,0.044-0.061c0.072,0.033,0.167,0.158,0.24,0.082
		c0.011-0.021-0.049-0.08,0.007-0.104c0.003,0.034,0.08,0.025,0.127,0.049c-0.039,0.043,0.115,0.089,0.121,0.1
		c0.006,0.008-0.031,0.021-0.026,0.023c0.097,0.07,0.211,0.081,0.22,0.172c0.027,0.041-0.023-0.031,0.027-0.011
		c0.031,0.019,0.001,0.062,0.021,0.066c0.012-0.067,0.002-0.241-0.098-0.254c0.09-0.063-0.219-0.184-0.124-0.255
		c-0.083-0.086-0.067-0.167-0.183-0.156c-0.002-0.034-0.029-0.047-0.032-0.08c0.036-0.025,0.02,0.037,0.053-0.01
		c0.008-0.022-0.029-0.037-0.021-0.092c0.021-0.014,0.034-0.012,0.052,0.004c0.018-0.047-0.041-0.028-0.047-0.056
		c0.027-0.14-0.14-0.259-0.114-0.384c-0.025,0.044-0.036-0.033-0.011-0.039c-0.045-0.046-0.145-0.084-0.132-0.141
		c-0.059,0.048-0.081-0.047-0.155,0.002c0.017,0.088,0.087,0.121,0.09,0.175c-0.048,0.005-0.071-0.046-0.102-0.021
		c-0.099,0.098-0.184,0.16-0.217,0.295c-0.041-0.004-0.116,0.045-0.157,0.027c0.001-0.017,0.023-0.01,0.028-0.023
		c-0.098-0.004-0.049,0.074-0.124,0.094c0.021,0.039-0.056,0.183-0.038,0.154c0.01,0,0.018,0,0.026,0.001
		c-0.056,0.044-0.051,0.116-0.023,0.142c-0.091,0.036-0.072-0.09-0.137-0.088c0.037,0.057-0.02,0.048-0.046,0.1
		c0.006-0.011,0.025,0.016,0.024,0.027c-0.005,0.033-0.073,0.066-0.069,0.061c-0.023,0.047-0.006,0.092-0.048,0.125
		c0.023,0.016-0.003,0.075,0.032,0.08c-0.089-0.01-0.154,0.135-0.146,0.21c-0.049-0.062-0.036,0.03-0.056,0.048
		c-0.016-0.002-0.029-0.006-0.023-0.027c-0.051-0.016,0.012,0.07-0.032,0.088c-0.103-0.033-0.163,0.086-0.278,0.084
		c-0.05,0.131-0.119,0.223-0.179,0.311c-0.041,0.02,0.044,0.054-0.006,0.077c0.003-0.022-0.007-0.034-0.022-0.04
		c0.043,0.109,0.01,0.146,0.016,0.299c0.076,0.068,0.227,0.09,0.092,0.176c-0.035-0.033-0.056-0.01-0.075-0.045
		c-0.019,0.073,0.042,0.021,0.034,0.067c-0.058-0.001-0.055,0.038-0.006,0.077c-0.057,0.005-0.065,0.032-0.117,0.004
		c-0.003,0.04,0.072,0.074,0.046,0.095c-0.017-0.003-0.017-0.019-0.038-0.017c0,0.035,0.012,0.062,0.033,0.081
		c-0.078-0.023-0.133-0.062-0.109-0.111c-0.034,0.024-0.049-0.005-0.049-0.043c-0.053,0.035-0.056-0.007-0.092,0.032
		c0.039,0.016,0.091,0.005,0.098,0.072c-0.05-0.051-0.09,0.032-0.115-0.021c0.021,0.065-0.008,0.066-0.055,0.035
		c0.003,0.053,0.03,0.074,0.019,0.104c-0.068-0.005-0.062-0.01-0.041,0.036c-0.021-0.02-0.041-0.038-0.089-0.033
		c0.013,0.038-0.058,0.063-0.033,0.102c0-0.014,0.009-0.032,0.014-0.012c-0.004,0.027-0.034,0.025-0.066,0.021
		c-0.023,0.042,0.051,0.06,0.007,0.079c-0.027-0.064-0.085,0.111-0.135,0.066c0.083-0.087-0.113,0.066-0.044,0.088
		c-0.022-0.002-0.044-0.003-0.064-0.004c-0.1,0.14-0.131,0.273-0.24,0.422c-0.035,0.025-0.098-0.02-0.128-0.009
		c0.025,0.009,0.01,0.085-0.019,0.076c0.031-0.026,0-0.052-0.035-0.054c-0.034,0.021-0.076,0.041-0.07,0.072
		c-0.039,0.016-0.075-0.052-0.078,0.007c0.119,0.07,0.168,0.108,0.243,0.212c-0.048,0.041-0.05,0.062-0.136,0.094
		c-0.023-0.074-0.127-0.196-0.221-0.184c-0.007,0-0.027,0.051-0.054,0.034c0.043,0.05-0.013,0.024-0.044,0.062
		c0.012,0.074,0.028,0.061-0.021,0.102c0.068-0.014,0.062,0.036,0.101,0.047c0.016-0.051,0.09-0.062,0.085-0.098
		c0.042,0,0.06,0.044,0.088,0.033c0.006-0.059,0.139,0.045,0.081,0.135c0.044,0.023,0.011-0.043,0.042-0.035
		c0.045,0.033,0.043,0.113,0.001,0.155c-0.1-0.044-0.131-0.147-0.234-0.159c-0.16-0.02-0.308,0.189-0.438,0.135
		c0.053-0.016,0.043-0.048,0.111-0.107c-0.034,0.001-0.064-0.001-0.049-0.043c-0.084,0.024-0.183,0.021-0.244-0.031
		c-0.003,0.075-0.028,0.134-0.103,0.161c-0.108-0.036-0.07-0.163-0.072-0.251c-0.015,0.037-0.068-0.051-0.035-0.055
		c0,0.016,0.016,0.019,0.011,0.039c0.039-0.075-0.129-0.178-0.176-0.26c0.02-0.038,0.054-0.104,0.01-0.129
		c-0.058-0.029-0.074,0.097-0.149,0.094c-0.021-0.022,0.021-0.059-0.034-0.067c-0.035,0.038-0.066,0.082-0.088,0.136
		c-0.184,0.06-0.185-0.111-0.256-0.213c-0.095,0.006-0.181,0.048-0.233-0.005c-0.042,0.032-0.051,0.08-0.046,0.101
		c-0.097-0.05-0.1-0.181-0.189-0.234c-0.029,0.051-0.063,0.095-0.113,0.121c-0.101-0.045-0.105-0.137-0.249-0.135
		c-0.019,0.104-0.104,0.107-0.091,0.174c-0.091,0.005-0.036-0.08-0.148-0.102c-0.017,0.078-0.187,0.144-0.347,0.13
		c-0.004-0.063,0.029-0.083,0.01-0.128c-0.034-0.043-0.091,0.062-0.116-0.01c0.001,0.062-0.104,0.17-0.155,0.17
		c-0.051-0.03-0.05-0.074-0.004-0.116c-0.062-0.035-0.116-0.042-0.071-0.097c-0.083,0.039-0.072-0.038-0.138-0.062
		c0.104-0.097-0.052-0.221-0.094-0.306c-0.188,0.002-0.229,0.129-0.363,0.182c-0.09-0.088-0.162-0.191-0.21-0.314
		c-0.084-0.018-0.106,0.035-0.184,0.025c-0.051-0.035,0.028-0.111-0.042-0.133c-0.052,0.021-0.061,0.04-0.107,0.044
		c0.022,0.005,0.028,0.024,0.022,0.054c-0.04-0.074-0.045,0.055-0.058,0.073c-0.007,0.009-0.045,0.012-0.054,0.022
		c-0.037,0.047-0.055,0.073-0.085,0.109c-0.056,0.067-0.117,0.19-0.196,0.181c-0.014,0.071-0.007,0.152-0.086,0.123
		c0.001-0.047,0.096-0.114,0.049-0.126c-0.035,0.012-0.066,0.026-0.119,0.018c0.002,0.029-0.007,0.048-0.029,0.049
		c-0.273,0.078-0.632-0.013-0.759-0.25c-0.141-0.021-0.204-0.199-0.288-0.307c-0.062,0.016-0.118,0-0.181-0.014
		c-0.261-0.219-0.523-0.496-0.53-0.895c-0.021-0.018-0.11,0.014-0.113-0.048c0.004-0.093,0.046-0.142,0.08-0.201
		c-0.079-0.07-0.049-0.169-0.143-0.179c0.101-0.13,0.192-0.271,0.137-0.443C0.086,21.4,0.045,21.311,0,21.304
		c0.073-0.189,0.209-0.307,0.344-0.428c-0.054-0.07-0.018-0.183-0.006-0.285c0.166-0.051,0.271-0.231,0.29-0.406
		c0.072-0.104,0.189-0.154,0.253-0.268c0-0.02-0.032-0.012-0.023-0.039c0.131-0.182,0.289-0.328,0.402-0.528
		c0.016,0.002,0.017,0.018,0.038,0.015c0.014-0.08,0.069-0.115,0.128-0.146c0.006-0.046-0.021-0.063-0.019-0.104
		c0.267-0.141,0.355-0.476,0.474-0.795c0.02-0.055,0.069-0.111,0.063-0.164c-0.009-0.087-0.142-0.169-0.161-0.271
		C1.76,17.765,1.83,17.71,1.819,17.577c-0.073-0.021-0.115-0.07-0.16-0.116c-0.049-0.177,0.062-0.246,0.067-0.383
		c-0.084,0-0.117,0.076-0.182-0.001c0.024-0.042,0.053-0.079,0.074-0.124c0.001-0.135-0.021-0.217-0.041-0.314
		c-0.018-0.084-0.001-0.193-0.021-0.248c-0.018-0.047-0.062-0.06-0.069-0.108c-0.007-0.044,0.021-0.085,0.022-0.128
		c0.002-0.073-0.03-0.145-0.023-0.223c0.018-0.167,0.076-0.307,0.163-0.441c-0.012-0.082-0.08-0.116-0.103-0.189
		c0.093-0.21,0.022-0.371,0.061-0.643c-0.158-0.047-0.156-0.195-0.09-0.357c-0.131-0.068-0.141-0.174-0.184-0.324
		c0.213-0.094,0.241-0.477,0.286-0.718c-0.029,0.024-0.086-0.03-0.085-0.071c0.086-0.037,0.061-0.131,0.093-0.213
		C1.671,13,1.695,12.982,1.697,12.927c-0.043-0.043-0.127,0.043-0.182-0.014c0.046-0.088,0.128-0.133,0.112-0.29
		c0.122-0.104,0.146-0.222,0.226-0.411c-0.065-0.037-0.146-0.061-0.172-0.129c0.008-0.033,0.041-0.037,0.044-0.074
		c-0.081-0.043-0.084-0.153-0.125-0.23c0.032-0.037,0.071-0.066,0.099-0.109c0.046-0.264,0.11-0.627,0.326-0.74
		c0.032-0.102,0.023-0.205,0.063-0.319c0.017-0.048,0.053-0.069,0.06-0.112c0.027-0.156-0.109-0.326,0.01-0.467
		C2.103,9.91,2.171,9.703,2.046,9.621c-0.001-0.06-0.011-0.074,0.009-0.129c-0.12-0.24-0.11-0.635-0.111-0.941
		C1.861,8.515,1.76,8.568,1.669,8.57c0.009-0.197,0.084-0.457,0.047-0.633C1.668,7.91,1.629,7.943,1.59,7.902
		c0.01-0.154,0.023-0.28,0.009-0.479C1.545,7.369,1.463,7.339,1.443,7.256c0.055-0.01,0.063-0.075,0.086-0.124
		C1.421,6.949,1.506,6.598,1.402,6.411C1.488,6.332,1.404,6.238,1.382,6.15C1.356,6.111,1.255,6.139,1.258,6.076
		C1.274,6.011,1.35,6.013,1.431,6.023C1.379,5.937,1.324,5.89,1.308,5.755c0.107-0.078,0.13-0.247,0.052-0.346
		C1.398,5.394,1.434,5.46,1.438,5.402c0.047-0.087-0.078-0.1-0.023-0.209c0.113-0.043,0.045-0.16,0.131-0.185
		C1.472,4.97,1.549,4.963,1.552,4.905C1.531,4.851,1.463,4.912,1.451,4.859C1.49,4.857,1.462,4.825,1.495,4.797
		C1.389,4.755,1.122,4.794,0.996,4.708c0.1-0.016,0.016-0.066,0.135-0.068C1.123,4.588,1.124,4.575,1.14,4.525
		C1.229,4.5,1.229,4.469,1.322,4.5c0.037-0.082,0.092-0.06,0.15-0.105c-0.021-0.06-0.025-0.107-0.027-0.158
		C1.461,4.188,1.521,4.194,1.52,4.125C1.504,4.122,1.507,4.103,1.509,4.085C1.385,4.072,1.135,4.106,1.142,3.967
		c0.05,0.025,0.104,0.038,0.141,0.022C1.27,3.986,1.253,3.966,1.271,3.964c0.13,0.045,0.112-0.002,0.182,0
		C1.396,3.88,1.071,4,1.1,3.834c0.119-0.025,0.29,0.009,0.38-0.05c-0.019,0-0.049-0.007-0.024-0.015
		C1.457,3.701,1.199,3.841,1.16,3.722c0.084-0.09,0.253-0.182,0.361-0.154c0.017-0.092,0.275,0.059,0.255-0.111
		C1.587,3.473,1.367,3.501,1.361,3.283C1.416,3.25,1.422,3.21,1.492,3.254c0.004-0.03-0.019-0.04-0.007-0.079
		c0.13-0.055,0.217-0.158,0.341-0.221C1.813,2.817,1.703,2.763,1.612,2.693c0.066-0.138,0.16-0.234,0.12-0.393
		c0.063-0.044,0.121,0.045,0.153,0.023c-0.052-0.088-0.11-0.17-0.079-0.33c0.116,0.041,0.178-0.043,0.287-0.03
		c0.155,0.02,0.259,0.2,0.428,0.188C2.539,2.09,2.615,1.994,2.619,1.873c-0.056-0.064-0.081-0.1-0.062-0.211
		C2.43,1.583,2.421,1.435,2.403,1.287c0.069-0.081,0.211-0.17,0.331-0.105c0.053-0.146,0.201-0.115,0.324-0.17
		c0.045-0.02,0.081-0.062,0.123-0.082C3.326,0.861,3.495,0.837,3.61,0.741c0.147-0.124,0.213-0.219,0.384-0.282
		C4.15,0.4,4.279,0.318,4.438,0.245C4.759,0.095,5.117,0.052,5.506,0C5.776,0.02,6.048,0.04,6.318,0.06z M3.005,3.665
		C3.004,3.673,3.004,3.681,3.003,3.691c0,0.008,0.001,0.015,0.012,0.014c0.004-0.01,0.003-0.025,0.016-0.025
		C3.031,3.698,3.049,3.703,3.053,3.72c-0.06-0.016,0.006,0.043-0.028,0.037C3.009,3.712,2.986,3.732,2.963,3.713
		C2.992,3.601,2.972,3.496,3,3.378c-0.033,0.029-0.034-0.07-0.088-0.032c0.043,0.038-0.062,0.021-0.068,0.047
		c0.019,0.004,0.048-0.001,0.05,0.017c-0.08-0.006,0.011,0.047-0.03,0.062C2.85,3.453,2.857,3.414,2.816,3.417
		c0.013,0.041,0.035,0.073,0.07,0.096c-0.048,0.025-0.017,0.1-0.074,0.124c0.071,0.001,0.02,0.03-0.003,0.038
		c0.03,0.01,0.065,0.017,0.061,0.057C2.83,3.759,2.765,3.736,2.739,3.749c0.023,0,0.029,0.015,0.023,0.04
		c0.052-0.04,0.097-0.013,0.134-0.055C2.891,3.763,2.895,3.784,2.904,3.8c0.04-0.028,0.046,0.027,0.064,0.004
		C2.95,3.792,2.953,3.761,2.948,3.738c0.017,0.006,0.022,0.021,0.05,0.017C2.995,3.81,3.004,3.795,3.045,3.824
		C2.994,3.839,3.02,3.832,3.028,3.874C3.01,3.873,3.001,3.866,2.99,3.858c0,0.013-0.001,0.025-0.003,0.038
		C2.988,3.904,2.988,3.912,3,3.91c0.031-0.033,0.026,0.059,0.007,0.079c0.088,0.007,0.001,0.11,0.067,0.147
		C3.037,4.137,3.048,4.214,3.068,4.201C3.065,4.234,3.042,4.244,3.025,4.262c-0.023-0.026-0.054-0.017-0.062-0.03
		c0.024,0-0.017-0.05,0.018-0.064C2.929,4.181,2.953,4.119,2.917,4.15C2.902,4.065,2.82,4.044,2.785,4.011
		C2.783,4.037,2.819,4.03,2.807,4.065c-0.018-0.003-0.028,0.003-0.039,0.01C2.764,4.052,2.789,4.042,2.77,4.036
		C2.73,4.062,2.762,4.087,2.748,4.151c0.045-0.013,0.065,0.056,0.034,0.067C2.745,4.164,2.748,4.192,2.708,4.173
		c0.003-0.015,0.025-0.027,0.003-0.038c-0.12-0.011-0.147-0.161-0.24-0.251c0.029,0.049-0.044,0.1-0.068,0.047
		c0.021-0.042,0.021-0.042,0.055-0.048C2.428,3.876,2.432,3.841,2.41,3.828C2.38,3.844,2.424,3.861,2.394,3.866
		C2.322,3.81,2.317,3.718,2.305,3.665c-0.03-0.001-0.059-0.031-0.099-0.06c0.022,0.023,0.015,0.109,0.048,0.056
		c0,0.008,0,0.015,0.012,0.014c-0.013,0.024-0.069,0.06-0.019,0.077C2.249,3.736,2.253,3.72,2.274,3.727
		C2.273,3.745,2.266,3.755,2.259,3.765c0.024,0.006,0.026-0.016,0.04-0.023C2.23,3.802,2.348,3.914,2.264,3.882
		C2.283,3.93,2.3,3.919,2.322,3.951c-0.01,0.002-0.025-0.002-0.026,0.012c0.038,0.002,0.039,0.062,0.021,0.079
		c0.089,0.032,0.005,0.093,0.068,0.122C2.37,4.188,2.326,4.179,2.328,4.224c0.041,0.019,0.014-0.041,0.054-0.022
		c-0.001,0.013,0.01,0.017,0.011,0.026C2.328,4.251,2.322,4.255,2.389,4.28c-0.01,0.03,0.01,0.095-0.02,0.103
		C2.373,4.35,2.375,4.32,2.348,4.316c-0.013,0.039,0.02,0.039,0.007,0.078C2.333,4.423,2.299,4.403,2.288,4.416
		c0.021,0.036,0.044,0.006,0.063,0.03c-0.051,0.024,0.046,0.11-0.02,0.076c-0.008,0.03,0.021,0.03,0.008,0.065
		C2.372,4.591,2.382,4.57,2.406,4.566C2.422,4.605,2.366,4.629,2.4,4.644c0.117,0.004,0.062,0.171,0.1,0.24
		c0.006-0.016,0.019-0.025,0.04-0.022c-0.032,0.03,0.012,0.063-0.031,0.075c0.054,0.055,0.028,0.197,0.005,0.285
		c0.07,0.1,0.068,0.227,0.056,0.303C2.501,5.484,2.519,5.408,2.518,5.353C2.401,5.178,2.396,4.91,2.223,4.786
		c0.008,0,0.015-0.001,0.013-0.012C2.138,4.773,2.263,4.901,2.221,4.98C2.205,5.009,2.215,5.027,2.176,5.068
		c0.014,0.003,0.036,0,0.037,0.016c0.022,0.186,0.082,0.238,0.049,0.393c0.051,0.006-0.04,0.053,0.033,0.066
		c-0.07,0.016-0.102-0.005-0.132,0.043C1.932,5.558,1.909,5.275,1.757,5.115C1.742,5.13,1.741,5.162,1.727,5.177
		C1.78,5.246,1.836,5.371,1.9,5.449C1.935,5.491,1.97,5.584,2.012,5.536c0.045,0.121,0.244,0.11,0.279,0.241
		C2.229,5.782,2.23,5.858,2.194,5.86C2.21,5.962,2.111,6.037,2.188,6.119c-0.047,0.009-0.016,0.15,0.031,0.119
		C2.188,6.265,2.204,6.271,2.188,6.3c0.02,0.056,0.105,0.054,0.163,0.076C2.35,6.386,2.349,6.394,2.348,6.403
		c-0.08,0.005-0.119-0.007-0.158,0.04C2.026,6.345,2.166,5.998,1.969,5.934c-0.004,0.01-0.013,0.015-0.027,0.011
		c0.02,0.18-0.012,0.399,0.09,0.539c0.051,0.068,0.162,0.08,0.104,0.162C2.202,6.697,2.24,6.773,2.29,6.839
		C2.269,6.837,2.257,6.847,2.25,6.863c0.05,0,0.009,0.08,0.045,0.094c0.039-0.036,0.1,0.032,0.092-0.02
		c0.156,0.098,0.398,0.107,0.495,0.141C2.868,7.113,2.897,7.113,2.891,7.143C2.885,7.169,2.854,7.166,2.848,7.192
		c0.015,0.003,0.037,0.001,0.037,0.016c-0.035,0.021,0,0.05-0.017,0.051c0.004,0.022,0.017-0.001,0.039,0.003
		C2.904,7.277,2.89,7.277,2.892,7.298c0.019,0.008,0.03,0.021,0.05,0.029c0.014-0.022-0.036-0.045,0.004-0.051
		c0.014,0.004,0.018,0.016,0.023,0.027c0.006,0.023-0.042,0.051-0.005,0.064c0.085-0.016,0.195,0.129,0.312,0.166
		C3.3,7.501,3.328,7.474,3.371,7.464c0.003-0.039-0.029-0.047-0.032-0.08c0.046,0.042,0.013-0.031,0.016-0.038
		C3.376,7.289,3.502,7.25,3.429,7.222c0.022,0.002,0.04,0,0.053-0.01C3.446,7.16,3.495,7.095,3.544,7.062
		c0.095,0.026,0.11,0.172,0.126,0.229c0.027-0.054,0.153-0.055,0.088-0.136C3.818,7.099,3.753,7,3.8,6.938
		c0.046,0.008,0.065,0.006,0.076,0.019C3.854,6.998,3.917,7.054,3.944,7.091c0.017,0.002,0.102-0.049,0.131-0.029
		c0.001-0.018,0.009-0.027,0.017-0.037c-0.01-0.004-0.026-0.002-0.025-0.016C4.119,7.017,4.088,6.96,4.109,6.96
		c0.099,0.016,0.094,0.007,0.166,0.025C4.271,6.927,4.265,6.932,4.316,6.951C4.318,6.918,4.296,6.908,4.334,6.9
		c0.12,0.129,0.127,0.303,0.171,0.492c0.025,0.006,0.026-0.016,0.04-0.023C4.522,7.412,4.551,7.425,4.514,7.445
		C4.525,7.459,4.562,7.453,4.55,7.486c0.028,0.02,0.052-0.029,0.052,0.004C4.579,7.501,4.583,7.544,4.569,7.566
		c0.022,0.006,0.034-0.018,0.039,0.002C4.59,7.57,4.592,7.595,4.58,7.605c0.016,0.003,0.029,0.006,0.023,0.027
		c0.031-0.016,0.115,0.025,0.062,0.044C4.789,7.671,4.822,7.56,4.911,7.513c0.006-0.038-0.026-0.042-0.021-0.08
		C4.941,7.455,4.925,7.44,4.919,7.397C4.958,7.41,4.967,7.387,4.997,7.39c0.028-0.104-0.003-0.256,0.08-0.371
		c-0.023-0.1,0.035-0.279,0.107-0.406c0,0.033-0.048,0.084-0.021,0.102C5.168,6.705,5.166,6.69,5.179,6.69
		c0.003,0.019,0.021,0.023,0.022,0.041c-0.066-0.019,0,0.032-0.053,0.022C5.16,6.794,5.147,6.783,5.143,6.83
		c0.062,0.004,0.006,0.023,0.022,0.054c0.016-0.011,0.116,0.01,0.133-0.042c0.021,0.034,0.02,0.021,0.051,0.004
		C5.367,6.911,5.4,6.962,5.386,7.056C5.43,7.054,5.401,7.115,5.459,7.1c-0.002-0.089,0.117-0.075,0.09-0.149
		c0.062,0.022,0.054-0.04,0.094-0.045c-0.034,0.066,0.019,0.01,0.036,0.042c-0.051,0.04,0.05,0.067,0.005,0.104
		c0.074,0.014,0.081-0.08,0.135-0.068c0.009-0.019-0.01-0.068,0.018-0.063C5.856,6.944,5.98,6.907,5.917,6.875
		c0.046-0.008,0.086-0.021,0.12-0.043c0.007,0.034,0.061,0.064,0.031,0.093c0.072-0.034,0.076-0.146,0.156-0.17
		C6.218,6.789,6.249,6.791,6.273,6.796C6.33,6.757,6.346,6.751,6.345,6.699C6.2,6.654,6.209,6.59,6.207,6.468
		C6.204,6.386,6.219,6.306,6.146,6.244C6.072,6.258,5.982,6.222,5.908,6.291C5.926,6.316,5.892,6.359,5.89,6.38
		C5.857,6.345,5.82,6.35,5.778,6.306c-0.013,0.044-0.087,0.02-0.103-0.02c0.105,0.01,0.061-0.066,0.12-0.043
		c0.03-0.057,0.024-0.059,0.008-0.116c0.019,0.001,0.028,0.008,0.038,0.016C5.827,6.103,5.852,6.097,5.85,6.04
		C5.818,6.027,5.814,5.99,5.79,5.97c0.069-0.086-0.062-0.23,0.036-0.309C5.809,5.66,5.797,5.666,5.786,5.672
		c-0.001-0.06,0.005-0.147-0.028-0.146c0.093-0.115,0.021-0.27,0.077-0.344c0.006-0.076-0.063-0.143-0.037-0.197
		C5.78,4.984,5.77,4.99,5.758,4.996C5.737,4.921,5.742,4.861,5.761,4.789C5.697,4.693,5.551,4.611,5.479,4.56
		c0.035-0.044,0.024-0.092,0.062-0.15c-0.03-0.02-0.003-0.033-0.007-0.078C5.448,4.298,5.464,4.25,5.416,4.193
		c-0.04,0-0.061,0.023-0.094,0.032C5.303,4.214,5.33,4.162,5.288,4.17C5.264,4.25,5.341,4.362,5.245,4.4
		C5.253,4.394,5.279,4.341,5.25,4.335C5.242,4.359,5.236,4.33,5.225,4.322C5.213,4.361,5.259,4.349,5.246,4.388
		c-0.013-0.001-0.017,0.01-0.027,0.011c0.038-0.032-0.03-0.034-0.02-0.079c-0.052,0.015-0.093-0.045-0.13,0.003
		c-0.005-0.194,0.044-0.48-0.197-0.494C4.867,3.869,4.83,3.825,4.817,3.876C4.782,3.845,4.744,3.885,4.716,3.843
		C4.713,3.858,4.715,3.88,4.7,3.88C4.696,3.859,4.684,3.882,4.661,3.878c-0.018-0.041-0.03-0.088-0.069-0.109
		c-0.01,0.017-0.029,0.021-0.054,0.021C4.524,3.832,4.569,3.82,4.573,3.845C4.526,3.814,4.51,3.853,4.468,3.864
		C4.423,3.822,4.377,3.781,4.391,3.689C4.353,3.697,4.357,3.668,4.326,3.671c0.021,0.057-0.028,0.125,0.018,0.131
		C4.283,3.857,4.338,3.959,4.351,4.049C4.318,4.044,4.309,4.066,4.297,4.083C4.331,4.106,4.313,4.14,4.279,4.148
		C4.277,4.123,4.295,4.121,4.295,4.097C4.27,4.091,4.269,4.113,4.255,4.121c-0.003-0.031,0.006-0.05,0.018-0.064
		c-0.015-0.003-0.037,0-0.038-0.016c0.061,0.003-0.013-0.02,0.004-0.052C4.259,4,4.293,4.062,4.326,4.021
		c-0.07,0.008-0.052-0.078-0.085-0.07C4.269,3.921,4.208,3.94,4.259,3.887C4.237,3.88,4.225,3.904,4.221,3.884
		c0.003-0.023,0.044-0.005,0.053-0.021C4.271,3.82,4.24,3.802,4.229,3.768C4.244,3.767,4.247,3.789,4.255,3.77
		C4.212,3.763,4.21,3.682,4.238,3.652c-0.055,0-0.052-0.02-0.035-0.055C4.155,3.611,4.155,3.593,4.111,3.603
		C4.106,3.656,4.1,3.759,4.051,3.716c-0.006,0.025,0.016,0.026,0.023,0.04c-0.063,0.028-0.023,0.03-0.045,0.075
		C4.03,3.824,4.021,3.816,4.017,3.83c0.021,0.026,0.041-0.014,0.05,0.03C4.064,3.894,4.023,3.884,4.023,3.921
		C4.1,3.917,4.041,3.995,4.029,4.012C4.027,4.046,4.083,4.031,4.062,4.08C4.039,4.082,4.035,4.064,4.012,4.064
		c0.031,0.061,0.1,0.09,0.104,0.176C4.088,4.22,4.07,4.176,4.04,4.22C4.057,4.242,4.105,4.236,4.1,4.277
		c-0.047-0.01-0.038,0.047-0.083,0.084c0.001-0.016-0.022-0.013-0.024-0.027c0.025-0.022,0.004-0.031,0.006-0.064
		C4.02,4.283,4.034,4.316,4.049,4.273C3.997,4.276,3.99,4.216,3.959,4.267C3.923,4.214,3.931,4.193,3.875,4.169
		c0.016-0.062-0.021-0.062-0.029-0.132c0.035,0.023,0.04-0.053,0.018-0.05c-0.004,0.02-0.002,0.044-0.029,0.036
		c-0.008-0.042,0.015-0.048,0.03-0.062C3.802,3.962,3.854,3.933,3.816,3.906C3.759,3.913,3.734,3.884,3.781,3.865
		C3.738,3.84,3.742,3.863,3.715,3.885C3.707,3.848,3.735,3.853,3.732,3.822C3.707,3.816,3.705,3.837,3.691,3.845
		C3.676,3.831,3.654,3.821,3.643,3.802c0.036-0.01,0.062-0.031,0.082-0.059c-0.044,0.019-0.043-0.012-0.089-0.02
		C3.623,3.763,3.67,3.751,3.657,3.791C3.631,3.794,3.631,3.826,3.59,3.812c-0.005,0.064,0.017,0.08-0.033,0.101
		c0.021,0.007,0.035-0.017,0.039,0.003C3.595,3.997,3.52,4.042,3.582,4.095C3.496,4.117,3.517,4.06,3.471,4.036
		c0.004-0.019,0.019-0.084,0.007-0.103C3.464,3.966,3.449,3.904,3.441,3.891C3.403,3.9,3.396,3.904,3.379,3.874
		C3.375,3.898,3.336,3.879,3.337,3.91c0.032,0,0.042-0.021,0.051,0.016c-0.053,0.021-0.063-0.057-0.09-0.019
		c0.034,0.015-0.029,0.028-0.042,0.036C3.29,3.9,3.241,3.933,3.219,3.939C3.191,3.898,3.142,3.826,3.109,3.828
		c0.018-0.039-0.018-0.033-0.021-0.053c0.01-0.003,0.025,0.001,0.026-0.012C3.098,3.734,3.081,3.777,3.077,3.748
		c0.031-0.033-0.025-0.092,0.024-0.166C3.062,3.587,3.06,3.498,3.027,3.537C3.044,3.593,3.057,3.681,3.005,3.665z M6.412,6.328
		c-0.08,0.043,0.042,0.18-0.004,0.221C6.476,6.541,6.5,6.57,6.495,6.593c0.008-0.045,0.03-0.086,0.042-0.035
		c0.018-0.008,0.006-0.05,0.029-0.051c0.021,0.008,0.035-0.016,0.039,0.004C6.572,6.535,6.629,6.515,6.632,6.5
		C6.629,6.531,6.651,6.539,6.64,6.578c0.052-0.012,0.022,0.045,0.075,0.031C6.688,6.541,6.684,6.517,6.712,6.466
		C6.73,6.5,6.713,6.562,6.77,6.562c0-0.047-0.016-0.062-0.033-0.067c0.048-0.018,0.003-0.062,0.032-0.089
		c-0.076-0.009-0.012-0.119-0.066-0.16C6.766,6.169,6.705,6,6.676,5.907c0.056-0.036,0.01-0.097-0.017-0.131
		c0.099-0.013-0.032-0.11,0.036-0.14C6.674,5.629,6.661,5.653,6.658,5.633c0.009-0.011,0.046-0.081,0.016-0.051
		C6.669,5.597,6.629,5.64,6.62,5.605c0.017-0.001,0.031-0.002,0.028-0.024c-0.029-0.027-0.088-0.028-0.112-0.06
		C6.528,5.586,6.557,5.609,6.526,5.65C6.51,5.648,6.51,5.631,6.488,5.634c-0.057,0.13-0.059,0.209-0.06,0.293
		C6.412,5.91,6.39,5.917,6.376,5.936C6.379,5.97,6.364,6.031,6.338,6.089C6.362,6.09,6.365,6.101,6.35,6.116
		c0.029-0.001,0.048,0.007,0.05,0.03C6.344,6.113,6.413,6.22,6.418,6.25c-0.027-0.006-0.033-0.028-0.05-0.042
		C6.371,6.257,6.385,6.298,6.412,6.328z M6.91,6.948C6.992,6.886,6.969,6.82,6.978,6.732c-0.015-0.019-0.062-0.01-0.062-0.043
		c0.043-0.064,0.049-0.118,0.042-0.217C6.934,6.473,6.931,6.456,6.907,6.456C6.924,6.502,6.863,6.46,6.865,6.491
		c0.02,0.005,0.01,0.032,0.01,0.053c-0.042-0.009-0.053-0.006-0.09-0.007c-0.002,0.029-0.002,0.23-0.057,0.229
		c0.015,0.007,0.029,0.017,0.037,0.028c-0.09,0.012-0.063,0.117-0.139,0.119c0.032,0,0.039,0.023,0.049,0.043
		C6.615,6.947,6.65,6.971,6.66,6.995C6.646,6.996,6.624,6.99,6.62,7.004c0.017,0.007,0.026,0.019,0.022,0.04
		c-0.012,0-0.025-0.002-0.037-0.002c0.054,0.09-0.101,0.127-0.037,0.14C6.562,7.211,6.531,7.208,6.517,7.191
		C6.512,7.228,6.553,7.224,6.55,7.258C6.53,7.264,6.518,7.276,6.508,7.294C6.562,7.31,6.493,7.345,6.502,7.372
		C6.596,7.332,6.498,7.405,6.5,7.411c0.015,0.042,0.112,0.067,0.086,0.058c-0.015-0.003-0.013-0.021-0.01-0.039
		c0.04,0.018,0.033-0.019,0.054-0.022c0.001,0.024-0.017,0.027-0.017,0.051C6.669,7.463,6.65,7.383,6.706,7.425
		C6.689,7.386,6.675,7.343,6.738,7.337c-0.005,0.018-0.02,0.023-0.016,0.051c0.049-0.023,0.056-0.08,0.125-0.121
		C6.831,7.261,6.822,7.25,6.824,7.227c0.018,0.001,0.028,0.008,0.038,0.016c0.03-0.046,0.001-0.081-0.003-0.13
		C6.885,7.115,6.878,7.08,6.912,7.091C6.854,7.048,6.998,6.945,6.91,6.948z M8.028,7.251C8.002,7.273,7.996,7.25,7.964,7.247
		C7.95,7.291,8.015,7.267,7.998,7.314C7.926,7.289,8,7.391,7.939,7.4C7.94,7.393,7.93,7.384,7.926,7.399
		C7.943,7.437,7.98,7.38,7.99,7.417C7.936,7.423,7.943,7.502,7.916,7.541C7.918,7.519,7.908,7.507,7.894,7.5
		C7.895,7.56,7.9,7.583,7.865,7.537c0.001,0.031,0.011,0.055,0.02,0.08c0.088,0.004,0.082,0.09,0.175,0.09
		C8.049,7.658,7.945,7.637,8.017,7.587C7.976,7.568,8.003,7.628,7.963,7.61c0.02-0.041-0.041-0.013-0.021-0.054
		c0.041-0.014,0.096,0.043,0.118-0.03C8.061,7.562,8.105,7.558,8.12,7.582C8.086,7.57,8.093,7.606,8.066,7.604
		c-0.005-0.016-0.012-0.03-0.022-0.04c-0.038,0.039,0.03,0.059,0.021,0.078c0.037-0.035,0.042,0.045,0.078-0.006
		c-0.006,0.024,0.016,0.026,0.022,0.04C8.178,7.716,8.1,7.763,8.144,7.792C8.07,7.742,8.065,7.819,8.016,7.769
		c0.034,0.02,0.049-0.048,0.027-0.012C8.011,7.753,8.001,7.775,7.988,7.792c0.016,0.003,0.03,0.006,0.023,0.028
		C7.989,7.82,7.973,7.815,7.961,7.804C7.918,7.923,7.934,7.943,8.037,8.003c-0.013-0.001-0.016,0.01-0.026,0.012
		C8.02,7.978,7.978,7.993,7.973,8c0.035,0.016-0.008,0.055-0.006,0.076C8.005,8.104,8.02,8.115,7.999,8.169
		c0.025,0.039,0.107,0.028,0.11,0.086C8.086,8.208,8.043,8.253,8.008,8.222C8.007,8.266,7.965,8.218,7.953,8.269
		c0.018,0.053,0.061,0.022,0.075,0.032C8.027,8.314,8.017,8.316,8.014,8.326C8.042,8.344,8.07,8.371,8.091,8.332
		c0.008,0.034-0.055,0.056-0.019,0.076c0.027-0.03,0.09,0.055,0.117-0.004C8.168,8.378,8.148,8.418,8.14,8.375
		c0.019,0.021,0.06-0.002,0.067-0.033C8.185,8.333,8.172,8.357,8.168,8.337c0.028-0.014,0.072-0.01,0.081-0.046
		C8.234,8.289,8.213,8.291,8.211,8.276c0.056,0.003-0.012-0.059,0.031-0.075c0.016,0.036,0.069,0.037,0.086,0.071
		c0.047-0.095,0.099,0.024,0.18,0.026c0.021-0.05,0.122-0.008,0.171-0.026c0.02-0.053,0.063-0.076,0.135-0.067
		c0.047-0.062,0.104-0.1,0.138-0.107C8.924,8.052,8.992,8.001,9.033,8.039C9.024,7.997,9.077,8.025,9.075,7.99
		c-0.04,0.002-0.054,0.041-0.077-0.006C9.046,7.97,9.043,7.896,9.096,7.888C9.093,7.903,9.07,7.916,9.093,7.926
		C9.098,7.908,9.115,7.906,9.121,7.89C9.089,7.838,9.045,7.929,9.02,7.882c0.02-0.01,0.086-0.038,0.055-0.061
		C9.03,7.843,9.126,7.773,9.066,7.769C9.066,7.796,9.02,7.771,9,7.777c0.002-0.032-0.021-0.042,0.017-0.051
		c0.006,0.068,0.038-0.031,0.05,0.03c0.006-0.018,0.021-0.023,0.018-0.052c-0.016-0.002-0.037,0-0.039-0.016
		C9.084,7.685,9.027,7.667,9.036,7.65c0.019,0.008,0.03,0.021,0.049,0.029c-0.019-0.045-0.011-0.038-0.033-0.08
		c0.038-0.01,0.034-0.016,0.055-0.021C9.062,7.569,9.131,7.508,9.098,7.511C9.056,7.545,9.025,7.416,8.984,7.478
		c0.013-0.036-0.017-0.035-0.009-0.066c0.054,0.031,0.036-0.01,0.029-0.049c0.034-0.025,0.028-0.017,0.079-0.008
		c0.001-0.018-0.005-0.028-0.011-0.039c0.09-0.002,0.052-0.036,0.113-0.135C9.153,7.197,9.125,7.21,9.149,7.166
		C9.098,7.177,9.057,7.21,9.004,7.194c-0.002,0.015,0,0.036-0.015,0.038C8.974,7.173,8.918,7.255,8.897,7.238
		C8.912,7.242,8.91,7.259,8.908,7.277C8.891,7.276,8.873,7.275,8.856,7.273C8.831,7.316,8.815,7.339,8.81,7.375
		c-0.013,0-0.022-0.059-0.037-0.017c0.015,0.007,0.024,0.019,0.022,0.041c-0.066-0.021-0.096,0.067-0.16,0.065
		c-0.02,0.1-0.157,0.182-0.264,0.227C8.318,7.677,8.336,7.652,8.32,7.687c-0.01-0.003-0.025-0.002-0.025-0.014
		c0.002-0.017,0.018-0.018,0.016-0.038c-0.118,0.009-0.062-0.06-0.122-0.101c0.013,0.002,0.017-0.008,0.027-0.01
		c0,0.023,0.005,0.043,0.021,0.053C8.242,7.551,8.295,7.58,8.292,7.542C8.252,7.553,8.271,7.513,8.27,7.49
		C8.215,7.5,8.206,7.484,8.154,7.468C8.188,7.542,8.111,7.46,8.138,7.519C8.095,7.537,8.062,7.515,8.037,7.486
		C8.034,7.445,8.057,7.434,8.08,7.423C8.069,7.432,8.039,7.51,8.088,7.501C8.09,7.458,8.1,7.41,8.097,7.373
		c0.011,0.023,0.04,0.044,0.052,0.004C8.088,7.345,8.231,7.269,8.117,7.271c0.057-0.023,0.087,0.012,0.056-0.048
		c0.029,0.006,0.049,0.001,0.054-0.022C8.206,7.199,8.182,7.2,8.189,7.172c0.022-0.003,0.032,0.021,0.039,0.003
		C8.208,7.17,8.222,7.146,8.23,7.136C8.21,7.13,8.196,7.154,8.193,7.134C8.24,7.116,8.221,7.101,8.236,7.059
		C8.182,7.07,8.189,6.978,8.111,6.998C8.103,7.062,8.043,7.22,8.028,7.251z M9.657,7.488c0.004,0.06-0.029,0.033-0.04,0.011
		c-0.07,0.084-0.121-0.042-0.181-0.013C9.451,7.49,9.494,7.529,9.459,7.539c0-0.008,0.001-0.018,0.002-0.025
		C9.382,7.518,9.355,7.542,9.307,7.488c0.021,0.046-0.062,0.039-0.018,0.064c0.006-0.038,0.049-0.014,0.064,0.005
		c-0.039,0.009-0.016,0.019-0.017,0.05C9.26,7.601,9.26,7.717,9.21,7.741C9.189,7.718,9.168,7.66,9.123,7.695
		c0.033,0.063-0.004,0.064,0.062,0.044c-0.028,0.063,0.01,0.003,0.022,0.054c-0.016,0-0.037-0.006-0.04,0.01
		C9.215,7.837,9.148,7.858,9.174,7.88c0.004-0.01,0.012-0.014,0.027-0.011c0.005-0.024-0.012-0.03-0.01-0.053
		c0.058-0.003,0.079-0.048,0.146-0.054C9.343,7.806,9.373,7.81,9.344,7.855c0.064,0.012,0.064-0.08,0.105-0.02
		C9.49,7.798,9.522,7.752,9.574,7.728C9.568,7.782,9.547,7.8,9.566,7.832c0.053-0.061,0.109-0.116,0.133-0.21
		c0.029,0.006,0.049,0.001,0.064-0.009C9.741,7.637,9.765,7.63,9.76,7.666c-0.015,0-0.035-0.006-0.039,0.01
		c0.021,0.002,0.004,0.035,0.023,0.04c-0.001-0.028,0.014-0.04,0.041-0.036C9.783,7.693,9.789,7.712,9.798,7.693
		C9.792,7.673,9.781,7.66,9.775,7.64c0.025,0.002,0.02-0.034,0.054-0.021c0,0.014-0.021,0.018-0.002,0.025
		c0.036-0.047-0.047-0.08-0.074-0.045c0.001-0.021,0.003-0.043,0.005-0.064c-0.019,0-0.028-0.008-0.039-0.016
		C9.718,7.587,9.607,7.543,9.678,7.554C9.672,7.531,9.676,7.501,9.657,7.488z M9.375,8.142c0.02-0.041-0.041-0.014-0.021-0.054
		c0.067-0.017,0.052-0.114,0.05-0.151C9.345,7.958,9.329,7.952,9.289,7.902C9.271,7.933,9.323,7.958,9.284,7.966
		c0.023-0.037-0.063-0.039-0.063-0.018c0.013,0.024-0.008,0.046-0.03,0.062C9.192,7.99,9.184,7.978,9.168,7.97
		c0.003,0.041-0.021,0.062-0.042,0.037c-0.007,0.03,0.021,0.029,0.008,0.064C9.075,8.05,9.092,8.185,9.025,8.142
		C8.975,8.208,9.02,8.287,9.076,8.328C9.049,8.351,9.07,8.361,9.085,8.379C9.068,8.398,9.07,8.436,9.03,8.427
		C9.012,8.536,9.008,8.545,9.055,8.624c-0.016,0.001-0.037-0.005-0.04,0.011c0.016,0.002,0.036,0,0.038,0.016
		C9.023,8.644,9.004,8.649,8.999,8.671c0.096,0.071,0.158,0.145,0.139,0.23c0.033-0.015,0.051,0.042,0.063,0.005
		C9.191,8.904,9.188,8.894,9.19,8.88c0.04,0.037,0.047-0.014,0.054-0.022c0.021,0.005,0.007,0.029-0.002,0.038
		C9.279,8.935,9.309,8.91,9.355,8.931C9.345,8.875,9.35,8.9,9.383,8.919c0.023-0.066-0.01-0.084,0.008-0.115
		c0,0.036,0.04,0.038,0.047,0.068c-0.016,0.025-0.076,0.079-0.02,0.102C9.416,8.945,9.424,8.926,9.447,8.925
		C9.448,8.949,9.43,8.953,9.43,8.975C9.544,8.91,9.518,8.978,9.637,8.991c0.004-0.068,0.074,0.005,0.068-0.046
		c0.018,0.004,0.02,0.021,0.036,0.027c0-0.053,0.007-0.028,0.041-0.022c0.006-0.024-0.016-0.026-0.023-0.04
		c0.042,0.012,0.023-0.025,0.017-0.039c0.022,0.002,0.039,0.006,0.05,0.018C9.819,8.851,9.764,8.82,9.819,8.796
		c-0.007-0.022-0.062-0.003-0.062-0.03c0.008,0,0.015-0.001,0.014-0.012c-0.054-0.017-0.027,0.062-0.069,0.06
		C9.702,8.8,9.692,8.798,9.69,8.788C9.692,8.771,9.708,8.771,9.706,8.75C9.679,8.748,9.663,8.675,9.645,8.707
		c0.01,0.009,0.036,0.062,0.008,0.064C9.658,8.74,9.636,8.73,9.617,8.717C9.604,8.74,9.653,8.763,9.613,8.769
		C9.553,8.72,9.513,8.811,9.427,8.845c0.044-0.057-0.02-0.043-0.047-0.068c0.065,0.014-0.02-0.065,0.032-0.075
		c0.036,0.015,0,0.048,0.021,0.054C9.467,8.714,9.449,8.651,9.455,8.64c0.034-0.012,0.041,0.059,0.063,0.018
		C9.5,8.649,9.539,8.589,9.587,8.611c0.014-0.016,0.016-0.046,0.03-0.062C9.596,8.542,9.583,8.565,9.578,8.546
		c0.006-0.023,0.024-0.028,0.054-0.022c0.01-0.04-0.015-0.052-0.02-0.079C9.648,8.444,9.654,8.41,9.669,8.384
		C9.653,8.376,9.641,8.368,9.631,8.355c0.041-0.021,0.052-0.08,0.075-0.124c-0.017-0.03-0.033,0.015-0.038-0.016
		C9.686,8.212,9.694,8.199,9.72,8.207C9.695,8.164,9.68,8.158,9.714,8.115C9.705,8.111,9.7,8.103,9.703,8.088
		c-0.05,0.037-0.164,0.042-0.08,0.046C9.604,8.155,9.569,8.156,9.554,8.181c-0.065-0.055-0.16-0.023-0.221-0.004
		C9.332,8.116,9.351,8.165,9.375,8.142z M8.847,8.802c0.017-0.018,0.016-0.057,0.056-0.047C8.876,8.777,8.898,8.787,8.897,8.82
		c0.063,0.001,0.018-0.051,0.058-0.087C8.939,8.718,8.908,8.717,8.907,8.691c0.021,0,0.013-0.033,0.04-0.023
		c-0.008-0.03-0.007-0.066-0.02-0.092c-0.055,0.01-0.097,0.035-0.135,0.067c-0.015-0.071-0.096,0.05-0.114-0.021
		C8.668,8.687,8.65,8.634,8.613,8.63C8.571,8.647,8.541,8.677,8.504,8.7c0.03-0.071-0.008-0.005-0.024-0.015
		C8.393,8.633,8.348,8.623,8.26,8.681c0.003-0.016,0.024-0.027,0.002-0.039c0.004,0.037-0.049,0.01-0.055,0.035
		c0.023,0,0.029,0.016,0.023,0.041C8.191,8.701,8.198,8.736,8.177,8.74C8.188,8.712,8.134,8.683,8.128,8.71
		c0.014,0.004,0.019,0.016,0.023,0.027C8.113,8.745,8.11,8.779,8.087,8.734C8.06,8.757,8.081,8.767,8.096,8.787
		C8.083,8.785,8.08,8.794,8.069,8.796C8.051,8.789,8.038,8.775,8.02,8.767c0.004,0.051-0.002,0.058-0.045,0.088
		C7.973,8.808,7.949,8.78,7.902,8.771C7.834,8.896,8.029,8.913,8.007,8.935c0.039,0.012,0.04-0.02,0.078-0.008
		C8.089,8.913,8.086,8.891,8.102,8.89c0.021,0.049,0.024-0.006,0.064-0.008c-0.008,0.07,0.063,0.074,0.082,0.122
		C8.209,9.01,8.259,9.033,8.244,9.056C8.219,9.054,8.193,9.052,8.167,9.05c0.108,0.09,0.336,0.168,0.47,0.139
		C8.614,9.181,8.644,9.175,8.651,9.164C8.6,9.154,8.639,9.132,8.616,9.11C8.57,9.114,8.537,9.115,8.473,9.125
		c0.02-0.078-0.039-0.02-0.032-0.093C8.418,9.023,8.385,9.066,8.377,9.027c0.021,0.002,0.033-0.008,0.04-0.022
		C8.369,9,8.381,8.978,8.406,8.964C8.386,8.92,8.346,8.923,8.374,8.884c-0.018-0.002-0.028,0.004-0.04,0.01
		c0.037-0.017-0.018-0.055,0.018-0.063c0.006,0.028,0.052,0.083,0.073,0.058c-0.017-0.025-0.065-0.024-0.06-0.069
		c0.137-0.019,0.235,0.022,0.36,0.04c-0.007-0.061,0.032,0.02,0.041-0.023C8.729,8.822,8.798,8.818,8.783,8.785
		C8.762,8.779,8.749,8.802,8.744,8.782C8.769,8.75,8.82,8.816,8.837,8.763C8.836,8.776,8.846,8.779,8.848,8.79
		C8.84,8.789,8.832,8.799,8.847,8.802z M7.512,17.376c0.004-0.011,0.012-0.015,0.026-0.012c-0.022-0.095,0.038-0.168,0.046-0.269
		c-0.013-0.001-0.025-0.002-0.039-0.003c-0.024,0.013,0.02,0.104-0.021,0.128c0.012-0.085-0.045,0.009-0.062-0.03
		c-0.024,0.049,0.055,0.008,0.049,0.042c-0.082-0.011-0.065,0.093-0.16,0.065c-0.021,0.128-0.107,0.17-0.148,0.249
		c0.005-0.011,0.001,0.124-0.062,0.138c0.018,0.005,0.013,0.029,0.023,0.041c-0.04-0.018-0.033,0.018-0.054,0.021
		c-0.006,0.025,0.015,0.027,0.022,0.041c-0.061,0.017-0.008,0.086-0.071,0.086c0.001,0.084,0.027,0.105-0.013,0.18
		c0.087,0.078-0.011,0.167-0.035,0.283c0.036,0.055-0.029,0.193,0.033,0.274c-0.104,0.144-0.162,0.354-0.234,0.54
		c0.014,0.003,0.036,0,0.037,0.016c-0.055,0.014-0.068,0.061-0.061,0.113c-0.024-0.033-0.079,0.047-0.03,0.062
		c-0.137,0.079,0.003,0.194,0.015,0.325c-0.018,0-0.028-0.008-0.037-0.016c0.042,0.084-0.054,0.191,0.006,0.272
		c-0.027,0.048-0.095,0.108-0.065,0.177c-0.016,0.023-0.062,0.014-0.08,0.033c0.049,0.001,0.004,0.011,0.01,0.039
		c0.034,0.012,0.027-0.023,0.054-0.021c0.002,0.026,0.023,0.035,0.035,0.055c-0.056,0.002-0.016,0.07-0.055,0.034
		c-0.004,0.032-0.007,0.062,0.007,0.078c-0.024-0.005-0.029,0.013-0.052,0.009c-0.038,0.119-0.052,0.186-0.088,0.305
		c0.058,0.021,0.027,0.082,0.004,0.117c0.053,0.062,0.051,0.105,0.064,0.187c-0.064,0.043-0.084,0.108-0.09,0.162
		c0.01-0.042,0.026,0.07,0.051,0.017c0.082,0.013,0.223-0.156,0.275-0.227c-0.014,0.057,0.026-0.008,0.023,0.028
		c-0.02,0.052-0.089,0.063-0.018,0.076c-0.021,0.014-0.02,0.053-0.057,0.048c0.031,0.049,0.004,0.027-0.006,0.09
		c0.035-0.006,0.023,0.027,0.05,0.03c0.001-0.046,0.034-0.054,0.057-0.073c-0.048,0.086-0.021,0.203-0.09,0.174
		c0.009,0.035,0.001,0.095-0.047,0.101c-0.019,0.03,0.048,0.044,0.01,0.053c-0.009,0-0.016,0.001-0.015,0.012
		c0.05-0.009,0.072-0.048,0.121-0.056c-0.012-0.041-0.005-0.047,0.027-0.023c0.005-0.025-0.013-0.029-0.009-0.053
		c0.101,0.008,0.083-0.105,0.116-0.173c0.006-0.011,0.035-0.01,0.041-0.023c-0.001,0.003-0.027-0.02-0.023-0.027
		c0.025-0.054,0.176-0.161,0.104-0.187c0.021-0.035,0.066-0.044,0.084-0.085c-0.019-0.009-0.03-0.022-0.036-0.041
		c0.064,0.003,0.012-0.058,0.059-0.087c-0.02-0.004-0.048,0.001-0.051-0.017c0.033,0.005,0.102-0.021,0.08-0.032
		c-0.042,0.022-0.067-0.017-0.105,0.018c0.014,0.057-0.007,0.086-0.07,0.086c0.01-0.061-0.029-0.076-0.046-0.082
		c0.091,0.023,0.099-0.113,0.203-0.114c-0.03-0.075,0.044,0.015,0.017-0.063c0.02,0.021,0.068,0.009,0.092-0.006
		c-0.056-0.002-0.037-0.059-0.089-0.033c0.005-0.055-0.021-0.087,0.022-0.115c-0.025-0.006-0.027,0.016-0.041,0.023
		c0.031-0.061-0.012-0.032-0.035-0.055c0.036-0.05,0.002-0.098,0.062-0.125c-0.079-0.111,0.059-0.247,0.011-0.323
		c-0.04,0.015-0.067,0.117-0.122,0.069c0.002-0.072,0.107-0.055,0.099-0.098c0.018,0.022,0.067,0.047,0.064-0.008
		c-0.019-0.004-0.048,0.002-0.05-0.017c0.008-0.085,0.081-0.138,0.12-0.224c-0.017-0.015-0.047-0.016-0.049-0.043
		c0.046,0.002,0.005-0.019,0.029-0.05C7.322,19.457,7.31,19.48,7.305,19.46c0.03-0.025,0.054-0.061,0.021-0.09
		c0.015,0,0.036,0.006,0.039-0.01c-0.026-0.021,0.017-0.035-0.021-0.053c0.057-0.041,0.001-0.103,0.038-0.166
		c-0.053-0.004-0.005-0.093-0.044-0.107c-0.008,0.024,0.012,0.08-0.03,0.062c0.001,0.047,0.033,0.035,0.008,0.079
		c-0.045-0.028-0.033,0.138-0.078,0.163c0.002-0.021-0.035-0.01-0.037-0.029c0.045-0.059,0.047-0.146-0.014-0.156
		c0.056-0.046,0.035-0.125,0.089-0.148c-0.032-0.039-0.034,0.03-0.079,0.02c0.037-0.036,0.033-0.139-0.002-0.156
		c0.018-0.025,0.04-0.047,0.058-0.073C7.189,18.775,7.284,18.71,7.25,18.64c-0.016-0.004-0.037-0.001-0.039-0.016
		c0.019-0.088,0.062-0.18,0.1-0.291c-0.023-0.005-0.029,0.012-0.053,0.01c0.029-0.085,0.012-0.178,0.057-0.23
		c-0.016-0.014-0.047-0.016-0.049-0.042c0.036-0.001,0.039-0.038,0.068-0.047c-0.071-0.042,0.086-0.089,0.037-0.153
		c0.08-0.024,0.033-0.089,0.109-0.082c0.017-0.113,0.033-0.137,0.057-0.229c-0.008-0.021-0.063-0.001-0.049-0.042
		c0.016,0.002,0.017,0.018,0.037,0.016c-0.022-0.05-0.021-0.053-0.005-0.104c-0.023-0.004-0.042-0.012-0.05-0.03
		c0.019-0.042-0.004-0.056,0.02-0.077c0.016,0.008,0.024,0.02,0.022,0.041C7.506,17.363,7.497,17.373,7.512,17.376z M11.203,18.816
		c-0.09-0.004-0.104-0.056-0.218-0.042c0.054,0.045,0.026,0.083,0.082,0.122c-0.083-0.02-0.093,0.033-0.132,0.029
		c0.012,0.02-0.033,0.092-0.06,0.113c0.062,0.008,0.048,0.012,0.101,0.033c0.001-0.022,0.013-0.033,0.029-0.037
		c-0.032,0.023,0.019,0.048,0.036,0.029c-0.001,0.012-0.001,0.025-0.003,0.038c0.025,0.006,0.027-0.015,0.041-0.022
		c-0.006,0.074,0.012,0.004,0.038,0.002c-0.017,0.04-0.003,0.029-0.006,0.078c0.048,0.021,0.028-0.034,0.067-0.021
		c0.002,0.039-0.039,0.062,0.007,0.078c0.019-0.006,0.006-0.049,0.03-0.049c-0.002,0.012,0.008,0.016,0.01,0.026
		c-0.002,0.021-0.033,0.007-0.028,0.036c0.058,0.016,0.063,0.074,0.151,0.063c-0.024-0.049-0.041-0.028-0.031-0.106
		c-0.042-0.027-0.116-0.028-0.109-0.099c-0.037-0.015-0.068,0.051-0.08,0.021c0.021-0.014,0.031-0.04,0.068-0.034
		c0.069,0.04,0.196,0.06,0.242,0.058c-0.022-0.004,0.042-0.023,0.056-0.062c-0.054,0.003-0.039-0.059-0.008-0.065
		c-0.076,0.018-0.036-0.018-0.062-0.043c-0.017,0.027-0.052,0.024-0.064-0.005c0.021,0.002,0.033-0.008,0.04-0.022
		c-0.052,0.016-0.024-0.036-0.048-0.043c-0.035,0.039,0.034-0.041-0.024-0.027c-0.016,0.01,0.001,0.031-0.041,0.035
		c0-0.018,0.008-0.027,0.016-0.037c-0.018-0.002-0.028-0.009-0.038-0.016C11.275,18.88,11.169,18.822,11.203,18.816z M10.246,20.002
		c0.008,0.087-0.031,0.067,0.002,0.155c-0.043,0.003-0.024,0.048-0.072,0.099c0.085-0.034,0.096,0.074,0.14,0.05
		c0.002,0.061,0.062,0.1,0.082,0.109c-0.003,0.021-0.034,0.008-0.028,0.037c0.016,0.003,0.036,0,0.037,0.016
		c-0.014,0.012-0.027,0.023-0.041,0.035c0.072-0.006,0.045,0.008,0.068-0.047c-0.006,0.038,0.021,0.047,0.033,0.068
		c-0.016,0-0.03,0.001-0.027,0.023c0.039,0.062,0.138,0.025,0.174,0.104c0.01-0.017,0.029-0.021,0.054-0.021
		c0.019-0.031-0.004-0.041,0.017-0.051c0.024,0.008,0.021,0.039,0.062,0.031c0.014-0.018,0.016-0.048,0.043-0.05
		c0.011,0.024-0.042,0.04-0.004,0.052c0.004-0.063,0.059,0.018,0.079-0.02c-0.005-0.049-0.054-0.059-0.07-0.097
		c0.031,0.005,0.054-0.003,0.065-0.021c-0.048-0.017-0.067-0.094-0.079-0.148c-0.036-0.021-0.067,0.029-0.077-0.006
		c0.057-0.008-0.038-0.074-0.072-0.084c-0.019,0.041,0.041,0.014,0.022,0.055c-0.046-0.07-0.147-0.091-0.21-0.146
		c0.004-0.015,0.016-0.019,0.028-0.024c0.112,0.035,0.153,0.084,0.267,0.072c0.033-0.014-0.027-0.057,0.029-0.051
		c-0.055-0.104-0.099-0.137-0.189-0.234c-0.012,0.025-0.037,0.033-0.068,0.035c-0.025-0.025-0.019-0.047-0.062-0.031
		c-0.01-0.024,0.043-0.04,0.004-0.051C10.451,19.96,10.38,20.021,10.246,20.002z M10.824,21.316
		c-0.064-0.012,0.037-0.028,0.029-0.062c-0.035-0.066-0.118-0.162-0.176-0.246c-0.023-0.006-0.029,0.012-0.053,0.008
		c0.008-0.07-0.011-0.01-0.024-0.014c-0.027-0.01-0.193-0.124-0.167-0.025c0.063,0.029,0.164,0.09,0.233,0.172
		c-0.12-0.043-0.206-0.094-0.323-0.179c-0.001,0.056-0.04-0.008-0.051-0.017c-0.004,0.016-0.015,0.006-0.025-0.002
		c-0.001,0.018-0.009,0.027-0.016,0.037c0.035,0.006,0.033,0.044,0.061,0.057c-0.02,0.042-0.002,0.041-0.021,0.102
		c0.029-0.001,0.048,0.008,0.049,0.03c-0.022,0.001-0.03,0.021-0.029,0.05c0.126,0.049,0.173,0.229,0.279,0.254
		c-0.005,0.068,0.077,0.062,0.109,0.099c0.001-0.022,0.007-0.04,0.017-0.05c-0.044-0.027-0.047-0.089-0.096-0.111
		c0.052-0.012,0.006-0.033-0.008-0.053c0.036-0.024,0.029,0.031,0.076,0.006c0.024-0.049-0.055-0.009-0.048-0.043
		c0.067-0.014-0.014-0.021-0.011-0.025c0.003-0.02,0.031-0.01,0.052-0.01c0.021-0.068-0.02-0.066,0.034-0.114
		C10.749,21.263,10.755,21.302,10.824,21.316z"/>
	<path fill-rule="evenodd" clip-rule="evenodd" fill="#FFFFFF" d="M3.027,3.537C3.06,3.498,3.062,3.587,3.102,3.582
		c-0.05,0.074,0.007,0.133-0.024,0.166c0.004,0.029,0.021-0.014,0.037,0.016C3.113,3.776,3.098,3.772,3.088,3.775
		c0.004,0.02,0.039,0.014,0.021,0.053c0.032-0.002,0.082,0.07,0.109,0.111C3.241,3.933,3.29,3.9,3.256,3.943
		c0.013-0.008,0.076-0.021,0.042-0.036c0.026-0.038,0.037,0.04,0.09,0.019C3.379,3.888,3.369,3.91,3.337,3.91
		c-0.001-0.03,0.038-0.012,0.042-0.036C3.396,3.904,3.403,3.9,3.441,3.891c0.008,0.013,0.022,0.075,0.036,0.042
		c0.012,0.019-0.003,0.084-0.007,0.103c0.046,0.024,0.025,0.081,0.111,0.06C3.52,4.042,3.595,3.997,3.596,3.916
		c-0.004-0.02-0.018,0.004-0.039-0.003c0.05-0.021,0.028-0.036,0.033-0.101c0.041,0.014,0.041-0.018,0.067-0.021
		C3.67,3.751,3.623,3.763,3.636,3.724c0.046,0.008,0.045,0.038,0.089,0.02C3.704,3.771,3.679,3.792,3.643,3.802
		c0.012,0.019,0.033,0.028,0.049,0.043c0.014-0.008,0.016-0.029,0.041-0.023c0.003,0.031-0.025,0.026-0.018,0.063
		C3.742,3.863,3.738,3.84,3.781,3.865c-0.047,0.02-0.022,0.048,0.035,0.041c0.037,0.027-0.015,0.057,0.048,0.056
		c-0.016,0.015-0.038,0.021-0.03,0.062c0.027,0.008,0.025-0.017,0.029-0.036c0.022-0.003,0.018,0.073-0.018,0.05
		c0.008,0.069,0.045,0.069,0.029,0.132c0.056,0.023,0.048,0.045,0.084,0.098c0.031-0.051,0.038,0.009,0.09,0.006
		C4.034,4.316,4.02,4.283,3.998,4.269c-0.002,0.033,0.02,0.042-0.006,0.064c0.002,0.015,0.025,0.012,0.024,0.027
		C4.062,4.324,4.053,4.267,4.1,4.277C4.105,4.236,4.057,4.242,4.04,4.22c0.03-0.044,0.048,0,0.076,0.02
		C4.111,4.154,4.043,4.125,4.012,4.064c0.023,0,0.027,0.018,0.051,0.016c0.021-0.049-0.035-0.033-0.033-0.067
		C4.041,3.995,4.1,3.917,4.023,3.921c0-0.037,0.041-0.027,0.043-0.062c-0.009-0.044-0.028-0.004-0.05-0.03
		C4.021,3.816,4.03,3.824,4.029,3.832c0.021-0.045-0.019-0.047,0.045-0.075c-0.008-0.014-0.029-0.015-0.023-0.04
		C4.1,3.759,4.106,3.656,4.111,3.603c0.044-0.01,0.044,0.008,0.092-0.006c-0.017,0.035-0.02,0.055,0.035,0.055
		C4.21,3.682,4.212,3.763,4.255,3.77C4.247,3.789,4.244,3.767,4.229,3.768C4.24,3.802,4.271,3.82,4.273,3.863
		c-0.009,0.017-0.05-0.002-0.053,0.021c0.004,0.02,0.017-0.004,0.038,0.003C4.208,3.94,4.269,3.921,4.241,3.951
		c0.033-0.008,0.015,0.078,0.085,0.07C4.293,4.062,4.259,4,4.238,3.989C4.222,4.021,4.295,4.043,4.234,4.041
		c0.001,0.016,0.023,0.013,0.038,0.016C4.261,4.071,4.252,4.089,4.255,4.121c0.014-0.008,0.015-0.029,0.04-0.023
		c0,0.023-0.018,0.025-0.016,0.051C4.313,4.14,4.331,4.106,4.297,4.083c0.012-0.018,0.021-0.039,0.054-0.034
		c-0.013-0.09-0.067-0.192-0.007-0.247C4.298,3.796,4.348,3.728,4.326,3.671c0.031-0.003,0.026,0.025,0.064,0.018
		C4.377,3.781,4.423,3.822,4.468,3.864c0.042-0.011,0.059-0.05,0.105-0.019C4.569,3.82,4.524,3.832,4.538,3.791
		c0.024,0,0.044-0.005,0.054-0.021c0.039,0.021,0.052,0.068,0.069,0.109C4.684,3.882,4.696,3.859,4.7,3.88
		c0.015,0,0.013-0.022,0.016-0.037c0.028,0.042,0.066,0.002,0.102,0.033c0.013-0.052,0.05-0.008,0.055-0.048
		c0.241,0.014,0.192,0.3,0.197,0.494c0.037-0.048,0.078,0.012,0.13-0.003c-0.011,0.045,0.058,0.047,0.02,0.079
		c0.011-0.001,0.015-0.012,0.027-0.011c0.013-0.039-0.033-0.027-0.021-0.066C5.236,4.33,5.242,4.359,5.25,4.335
		C5.279,4.341,5.253,4.394,5.245,4.4C5.341,4.362,5.264,4.25,5.288,4.17C5.33,4.162,5.303,4.214,5.322,4.225
		c0.033-0.009,0.054-0.032,0.094-0.032C5.464,4.25,5.448,4.298,5.535,4.332C5.539,4.376,5.512,4.39,5.542,4.41
		C5.504,4.468,5.515,4.516,5.479,4.56c0.071,0.051,0.218,0.133,0.281,0.229C5.742,4.861,5.737,4.921,5.758,4.996
		C5.77,4.99,5.78,4.984,5.798,4.986C5.771,5.041,5.841,5.107,5.835,5.183C5.779,5.257,5.851,5.412,5.758,5.527
		c0.033-0.002,0.027,0.086,0.028,0.146c0.011-0.007,0.022-0.013,0.04-0.011C5.729,5.74,5.859,5.884,5.79,5.97
		C5.814,5.99,5.818,6.027,5.85,6.04c0.002,0.058-0.022,0.063-0.008,0.104c-0.01-0.008-0.02-0.015-0.038-0.016
		c0.017,0.058,0.022,0.06-0.008,0.116c-0.06-0.023-0.015,0.053-0.12,0.043c0.016,0.039,0.09,0.063,0.103,0.02
		C5.82,6.35,5.857,6.345,5.89,6.38c0.002-0.021,0.036-0.064,0.019-0.09c0.074-0.068,0.164-0.032,0.237-0.047
		c0.073,0.062,0.059,0.143,0.062,0.225C6.209,6.59,6.2,6.654,6.345,6.699C6.346,6.751,6.33,6.757,6.273,6.796
		C6.249,6.791,6.218,6.789,6.225,6.754c-0.08,0.024-0.084,0.136-0.156,0.17c0.029-0.028-0.024-0.059-0.031-0.093
		c-0.034,0.021-0.074,0.035-0.12,0.043C5.98,6.907,5.856,6.944,5.836,6.92C5.809,6.916,5.827,6.965,5.818,6.984
		C5.765,6.972,5.758,7.066,5.684,7.052c0.045-0.037-0.056-0.064-0.005-0.104c-0.018-0.032-0.07,0.024-0.036-0.042
		c-0.04,0.005-0.031,0.067-0.094,0.045C5.576,7.025,5.457,7.011,5.459,7.1C5.401,7.115,5.43,7.054,5.386,7.056
		C5.4,6.962,5.367,6.911,5.349,6.845c-0.031,0.017-0.03,0.03-0.051-0.004C5.281,6.893,5.181,6.873,5.165,6.883
		c-0.017-0.03,0.04-0.05-0.022-0.054C5.147,6.783,5.16,6.794,5.148,6.753c0.053,0.01-0.014-0.041,0.053-0.022
		C5.199,6.713,5.182,6.708,5.179,6.69c-0.013,0-0.011,0.015-0.015,0.024C5.137,6.697,5.185,6.646,5.185,6.613
		C5.112,6.74,5.054,6.919,5.077,7.019C4.994,7.134,5.025,7.287,4.997,7.39c-0.03-0.003-0.039,0.02-0.078,0.007
		C4.925,7.44,4.941,7.455,4.891,7.433c-0.006,0.038,0.026,0.042,0.021,0.08C4.822,7.56,4.789,7.671,4.666,7.676
		c0.053-0.019-0.031-0.06-0.062-0.044C4.609,7.611,4.596,7.608,4.58,7.605c0.012-0.01,0.01-0.035,0.028-0.037
		c-0.005-0.02-0.017,0.004-0.039-0.002c0.014-0.021,0.01-0.064,0.032-0.076c0-0.033-0.023,0.016-0.052-0.004
		c0.012-0.033-0.024-0.026-0.036-0.041c0.037-0.02,0.009-0.033,0.031-0.076C4.531,7.376,4.53,7.398,4.505,7.392
		C4.461,7.203,4.454,7.029,4.334,6.9C4.296,6.908,4.318,6.918,4.316,6.951C4.265,6.932,4.271,6.927,4.275,6.986
		C4.203,6.967,4.208,6.976,4.109,6.96c-0.021,0,0.01,0.057-0.043,0.049C4.065,7.023,4.082,7.021,4.092,7.025
		c-0.008,0.01-0.016,0.02-0.017,0.037c-0.029-0.02-0.114,0.031-0.131,0.029c-0.027-0.037-0.09-0.094-0.068-0.135
		C3.865,6.944,3.846,6.946,3.8,6.938C3.753,7,3.818,7.099,3.758,7.156C3.823,7.237,3.697,7.238,3.67,7.292
		C3.654,7.234,3.639,7.088,3.544,7.062C3.495,7.095,3.446,7.16,3.481,7.212c-0.013,0.01-0.03,0.012-0.053,0.01
		C3.502,7.25,3.376,7.289,3.354,7.346c-0.003,0.007,0.03,0.08-0.016,0.038c0.003,0.033,0.035,0.041,0.032,0.08
		C3.328,7.474,3.3,7.501,3.276,7.535C3.159,7.498,3.049,7.353,2.964,7.369C2.927,7.355,2.975,7.328,2.969,7.304
		c-0.006-0.012-0.01-0.023-0.023-0.027c-0.04,0.006,0.01,0.028-0.004,0.051C2.922,7.32,2.91,7.306,2.892,7.298
		C2.89,7.277,2.904,7.277,2.907,7.261c-0.022-0.004-0.035,0.02-0.039-0.003C2.885,7.257,2.85,7.229,2.885,7.208
		c0-0.015-0.022-0.013-0.037-0.016c0.006-0.026,0.037-0.022,0.043-0.049c0.007-0.03-0.022-0.03-0.009-0.065
		C2.785,7.044,2.543,7.035,2.387,6.937c0.008,0.052-0.053-0.017-0.092,0.02C2.259,6.943,2.3,6.863,2.25,6.863
		c0.007-0.016,0.019-0.025,0.04-0.023C2.24,6.773,2.202,6.697,2.136,6.646c0.058-0.082-0.054-0.094-0.104-0.162
		c-0.102-0.14-0.07-0.359-0.09-0.539c0.015,0.004,0.023-0.001,0.027-0.011c0.197,0.063,0.058,0.411,0.221,0.509
		c0.039-0.047,0.078-0.035,0.158-0.04C2.349,6.394,2.35,6.386,2.351,6.376C2.293,6.354,2.207,6.356,2.188,6.3
		c0.017-0.029,0-0.035,0.031-0.062c-0.047,0.031-0.078-0.11-0.031-0.119C2.111,6.037,2.21,5.962,2.194,5.86
		C2.23,5.858,2.229,5.782,2.291,5.777c-0.035-0.131-0.234-0.12-0.279-0.241C1.97,5.584,1.935,5.491,1.9,5.449
		C1.836,5.371,1.78,5.246,1.727,5.177c0.015-0.016,0.016-0.047,0.03-0.062c0.152,0.16,0.175,0.443,0.406,0.471
		c0.03-0.048,0.062-0.027,0.132-0.043C2.222,5.529,2.312,5.482,2.262,5.476c0.033-0.154-0.026-0.207-0.049-0.393
		C2.212,5.068,2.189,5.071,2.176,5.068C2.215,5.027,2.205,5.009,2.221,4.98c0.042-0.079-0.083-0.207,0.015-0.206
		C2.237,4.785,2.23,4.786,2.223,4.786C2.396,4.91,2.401,5.178,2.518,5.353c0.001,0.055-0.017,0.131,0.052,0.172
		c0.013-0.076,0.015-0.203-0.056-0.303c0.023-0.088,0.049-0.23-0.005-0.285C2.552,4.925,2.508,4.892,2.54,4.862
		C2.519,4.859,2.506,4.869,2.5,4.884c-0.037-0.069,0.018-0.236-0.1-0.24C2.366,4.629,2.422,4.605,2.406,4.566
		C2.382,4.57,2.372,4.591,2.34,4.587c0.014-0.035-0.016-0.035-0.008-0.065c0.065,0.034-0.031-0.052,0.02-0.076
		c-0.02-0.024-0.042,0.006-0.063-0.03c0.011-0.013,0.045,0.008,0.066-0.021c0.013-0.039-0.02-0.039-0.007-0.078
		C2.375,4.32,2.373,4.35,2.369,4.382c0.029-0.008,0.01-0.072,0.02-0.103C2.322,4.255,2.328,4.251,2.393,4.228
		c-0.001-0.01-0.012-0.014-0.011-0.026c-0.04-0.019-0.013,0.041-0.054,0.022C2.326,4.179,2.37,4.188,2.385,4.164
		c-0.063-0.029,0.021-0.09-0.068-0.122c0.019-0.017,0.018-0.077-0.021-0.079c0.001-0.014,0.017-0.01,0.026-0.012
		C2.3,3.919,2.283,3.93,2.264,3.882c0.084,0.031-0.033-0.08,0.035-0.141C2.285,3.75,2.283,3.771,2.259,3.765
		c0.007-0.01,0.015-0.021,0.016-0.038C2.253,3.72,2.249,3.736,2.247,3.751C2.196,3.734,2.253,3.699,2.266,3.674
		C2.254,3.675,2.254,3.668,2.254,3.661C2.221,3.714,2.229,3.628,2.206,3.605c0.04,0.028,0.068,0.059,0.099,0.06
		C2.317,3.718,2.322,3.81,2.394,3.866C2.424,3.861,2.38,3.844,2.41,3.828c0.021,0.014,0.018,0.049,0.047,0.056
		C2.424,3.889,2.423,3.889,2.402,3.931C2.427,3.984,2.5,3.933,2.471,3.884c0.093,0.09,0.12,0.24,0.24,0.251
		c0.022,0.011,0,0.023-0.003,0.038c0.04,0.019,0.037-0.01,0.074,0.045c0.031-0.012,0.011-0.08-0.034-0.067
		C2.762,4.087,2.73,4.062,2.77,4.036c0.02,0.007-0.006,0.017-0.002,0.039c0.011-0.007,0.021-0.013,0.039-0.01
		C2.819,4.03,2.783,4.037,2.785,4.011C2.82,4.044,2.902,4.065,2.917,4.15C2.953,4.119,2.929,4.181,2.98,4.167
		C2.946,4.182,2.987,4.232,2.963,4.232c0.009,0.014,0.039,0.004,0.062,0.03c0.017-0.019,0.04-0.028,0.043-0.062
		C3.048,4.214,3.037,4.137,3.074,4.136C3.008,4.099,3.095,3.996,3.007,3.989C3.026,3.968,3.031,3.876,3,3.91
		C2.988,3.912,2.988,3.904,2.987,3.896C2.989,3.883,2.99,3.871,2.99,3.858c0.011,0.008,0.02,0.015,0.038,0.016
		C3.02,3.832,2.994,3.839,3.045,3.824C3.004,3.795,2.995,3.81,2.998,3.754c-0.027,0.004-0.033-0.011-0.05-0.017
		C2.953,3.761,2.95,3.792,2.969,3.804C2.95,3.828,2.944,3.772,2.904,3.8c-0.01-0.017-0.014-0.037-0.008-0.066
		C2.859,3.776,2.814,3.749,2.763,3.789c0.006-0.025,0-0.04-0.023-0.04C2.765,3.736,2.83,3.759,2.87,3.732
		c0.005-0.04-0.03-0.047-0.061-0.057c0.022-0.008,0.074-0.037,0.003-0.038C2.87,3.613,2.839,3.539,2.887,3.513
		c-0.035-0.022-0.058-0.055-0.07-0.096C2.857,3.414,2.85,3.453,2.863,3.472c0.041-0.016-0.05-0.068,0.03-0.062
		c-0.002-0.018-0.031-0.013-0.05-0.017c0.007-0.025,0.111-0.009,0.068-0.047C2.966,3.308,2.967,3.408,3,3.378
		C2.972,3.496,2.992,3.601,2.963,3.713c0.023,0.019,0.046-0.001,0.062,0.044C3.059,3.763,2.993,3.705,3.053,3.72
		C3.049,3.703,3.031,3.698,3.03,3.679c-0.013,0-0.012,0.016-0.016,0.025C3.004,3.706,3.003,3.699,3.003,3.691
		c0.001-0.01,0.001-0.018,0.002-0.026C3.057,3.681,3.044,3.593,3.027,3.537z"/>
	<path fill-rule="evenodd" clip-rule="evenodd" fill="#FFFFFF" d="M6.368,6.208c0.017,0.014,0.022,0.036,0.05,0.042
		C6.413,6.22,6.344,6.113,6.399,6.146c-0.002-0.023-0.021-0.031-0.05-0.03C6.365,6.101,6.362,6.09,6.338,6.089
		C6.364,6.031,6.379,5.97,6.376,5.936C6.39,5.917,6.412,5.91,6.429,5.927c0.001-0.084,0.003-0.163,0.06-0.293
		C6.51,5.631,6.51,5.648,6.526,5.65c0.03-0.041,0.002-0.063,0.01-0.129c0.024,0.031,0.083,0.032,0.112,0.06
		C6.651,5.603,6.637,5.604,6.62,5.605C6.629,5.64,6.669,5.597,6.674,5.583c0.03-0.03-0.007,0.04-0.016,0.051
		c0.003,0.02,0.016-0.004,0.037,0.003c-0.068,0.029,0.062,0.127-0.036,0.14C6.686,5.81,6.731,5.871,6.676,5.907
		C6.705,6,6.766,6.169,6.702,6.246c0.055,0.041-0.01,0.151,0.066,0.16C6.739,6.432,6.784,6.477,6.736,6.495
		C6.754,6.5,6.77,6.515,6.77,6.562c-0.057,0-0.039-0.062-0.058-0.096C6.684,6.517,6.688,6.541,6.715,6.609
		C6.662,6.623,6.691,6.566,6.64,6.578C6.651,6.539,6.629,6.531,6.632,6.5c-0.003,0.016-0.06,0.035-0.026,0.012
		c-0.004-0.02-0.018,0.004-0.039-0.004C6.543,6.508,6.555,6.55,6.537,6.558c-0.012-0.051-0.034-0.01-0.042,0.035
		C6.5,6.57,6.476,6.541,6.408,6.548c0.046-0.041-0.076-0.178,0.004-0.221C6.385,6.298,6.371,6.257,6.368,6.208z"/>
	<path fill-rule="evenodd" clip-rule="evenodd" fill="#FFFFFF" d="M6.912,7.091C6.878,7.08,6.885,7.115,6.859,7.113
		c0.004,0.049,0.033,0.084,0.003,0.13c-0.01-0.008-0.021-0.015-0.038-0.016C6.822,7.25,6.831,7.261,6.848,7.267
		C6.778,7.308,6.771,7.365,6.723,7.388C6.719,7.361,6.733,7.355,6.738,7.337C6.675,7.343,6.689,7.386,6.706,7.425
		C6.65,7.383,6.669,7.463,6.613,7.458c0-0.023,0.018-0.026,0.017-0.051c-0.021,0.004-0.014,0.04-0.054,0.022
		c-0.003,0.018-0.005,0.036,0.01,0.039C6.612,7.478,6.515,7.453,6.5,7.411C6.498,7.405,6.596,7.332,6.502,7.372
		C6.493,7.345,6.562,7.31,6.508,7.294c0.01-0.019,0.022-0.03,0.042-0.036c0.003-0.034-0.038-0.03-0.033-0.067
		c0.015,0.018,0.046,0.021,0.052-0.009c-0.063-0.013,0.091-0.05,0.037-0.14c0.012,0,0.025,0.002,0.037,0.002
		c0.004-0.021-0.006-0.033-0.022-0.04c0.004-0.015,0.025-0.009,0.04-0.01C6.65,6.971,6.615,6.947,6.676,6.957
		c-0.01-0.02-0.017-0.043-0.049-0.043c0.075-0.002,0.049-0.107,0.139-0.119C6.758,6.783,6.743,6.773,6.729,6.766
		c0.055,0.001,0.055-0.2,0.057-0.229c0.037,0.001,0.048-0.002,0.09,0.007c0-0.021,0.01-0.048-0.01-0.053
		C6.863,6.46,6.924,6.502,6.907,6.456c0.023,0,0.026,0.018,0.051,0.017c0.007,0.099,0.001,0.152-0.042,0.217
		C6.915,6.722,6.963,6.713,6.978,6.732C6.969,6.82,6.992,6.886,6.91,6.948C6.998,6.945,6.854,7.048,6.912,7.091z"/>
	<path fill-rule="evenodd" clip-rule="evenodd" fill="#FFFFFF" d="M8.111,6.998c0.078-0.02,0.07,0.072,0.125,0.062
		C8.221,7.101,8.24,7.116,8.193,7.134C8.196,7.154,8.21,7.13,8.23,7.136C8.222,7.146,8.208,7.17,8.229,7.175
		C8.222,7.194,8.212,7.169,8.189,7.172C8.182,7.2,8.206,7.199,8.227,7.201C8.222,7.224,8.202,7.229,8.173,7.223
		c0.031,0.06,0.001,0.024-0.056,0.048c0.114-0.002-0.029,0.074,0.031,0.105c-0.012,0.04-0.041,0.02-0.052-0.004
		C8.1,7.41,8.09,7.458,8.088,7.501C8.039,7.51,8.069,7.432,8.08,7.423C8.057,7.434,8.034,7.445,8.037,7.486
		c0.024,0.029,0.058,0.051,0.101,0.033C8.111,7.46,8.188,7.542,8.154,7.468C8.206,7.484,8.215,7.5,8.27,7.49
		c0.002,0.023-0.018,0.063,0.022,0.053c0.003,0.037-0.05,0.009-0.055,0.035c-0.017-0.01-0.021-0.029-0.021-0.053
		c-0.011,0.002-0.015,0.012-0.027,0.01c0.06,0.041,0.004,0.109,0.122,0.101c0.002,0.021-0.014,0.021-0.016,0.038
		c0,0.012,0.016,0.011,0.025,0.014c0.016-0.035-0.002-0.01,0.051,0.004c0.106-0.045,0.244-0.127,0.264-0.227
		c0.064,0.002,0.094-0.086,0.16-0.065c0.002-0.022-0.008-0.034-0.022-0.041C8.787,7.316,8.797,7.375,8.81,7.375
		c0.006-0.035,0.021-0.059,0.047-0.102c0.017,0.002,0.034,0.003,0.052,0.004C8.91,7.259,8.912,7.242,8.897,7.238
		c0.021,0.018,0.076-0.064,0.092-0.006C9.004,7.23,9.002,7.208,9.004,7.194C9.057,7.21,9.098,7.177,9.149,7.166
		C9.125,7.21,9.153,7.197,9.187,7.181C9.125,7.28,9.163,7.314,9.073,7.316c0.006,0.011,0.012,0.021,0.011,0.039
		C9.033,7.346,9.039,7.337,9.005,7.363c0.007,0.039,0.024,0.08-0.029,0.049c-0.008,0.031,0.021,0.03,0.009,0.066
		c0.041-0.062,0.071,0.067,0.113,0.033c0.033-0.003-0.035,0.058,0.009,0.066C9.086,7.583,9.09,7.589,9.052,7.599
		c0.022,0.042,0.015,0.035,0.033,0.08C9.066,7.671,9.055,7.658,9.036,7.65C9.027,7.667,9.084,7.685,9.045,7.689
		c0.002,0.016,0.023,0.014,0.039,0.016c0.003,0.028-0.012,0.034-0.018,0.052c-0.012-0.062-0.044,0.038-0.05-0.03
		C8.979,7.735,9.002,7.745,9,7.777c0.02-0.006,0.066,0.02,0.066-0.008c0.06,0.004-0.036,0.074,0.008,0.053
		C9.105,7.844,9.039,7.873,9.02,7.882C9.045,7.929,9.089,7.838,9.121,7.89C9.115,7.906,9.098,7.908,9.093,7.926
		c-0.022-0.011,0-0.023,0.003-0.038C9.043,7.896,9.046,7.97,8.998,7.984C9.021,8.031,9.035,7.992,9.075,7.99
		c0.002,0.035-0.051,0.007-0.042,0.049C8.992,8.001,8.924,8.052,8.951,8.097C8.918,8.105,8.86,8.143,8.813,8.205
		C8.742,8.196,8.698,8.219,8.679,8.272C8.63,8.291,8.529,8.249,8.508,8.298c-0.081-0.002-0.133-0.121-0.18-0.026
		c-0.017-0.034-0.07-0.035-0.086-0.071C8.199,8.217,8.267,8.279,8.211,8.276c0.002,0.015,0.023,0.013,0.038,0.016
		C8.24,8.328,8.196,8.324,8.168,8.337c0.004,0.02,0.017-0.004,0.039,0.004C8.199,8.373,8.158,8.396,8.14,8.375
		c0.009,0.044,0.028,0.004,0.05,0.029C8.162,8.462,8.1,8.377,8.072,8.408C8.036,8.387,8.099,8.366,8.091,8.332
		C8.07,8.371,8.042,8.344,8.014,8.326c0.003-0.01,0.014-0.012,0.015-0.024c-0.015-0.01-0.058,0.021-0.075-0.032
		c0.012-0.051,0.054-0.003,0.055-0.047c0.035,0.031,0.078-0.014,0.102,0.033c-0.003-0.058-0.085-0.047-0.11-0.086
		C8.02,8.115,8.005,8.104,7.967,8.076C7.965,8.054,8.008,8.015,7.973,8C7.978,7.993,8.02,7.978,8.011,8.015
		c0.011-0.002,0.014-0.013,0.026-0.012c-0.104-0.061-0.119-0.08-0.076-0.199C7.973,7.815,7.989,7.82,8.012,7.821
		c0.007-0.022-0.008-0.025-0.023-0.028c0.013-0.018,0.022-0.039,0.055-0.035C8.064,7.721,8.05,7.789,8.016,7.769
		c0.05,0.05,0.055-0.027,0.128,0.022C8.1,7.763,8.178,7.716,8.165,7.676c-0.007-0.014-0.028-0.016-0.022-0.04
		C8.106,7.687,8.102,7.607,8.064,7.642c0.01-0.02-0.059-0.039-0.021-0.078c0.011,0.01,0.018,0.024,0.022,0.04
		C8.093,7.606,8.086,7.57,8.12,7.582c-0.015-0.023-0.06-0.02-0.061-0.056c-0.022,0.073-0.077,0.017-0.118,0.03
		C7.922,7.597,7.982,7.569,7.963,7.61c0.04,0.019,0.013-0.042,0.054-0.022c-0.071,0.05,0.032,0.07,0.043,0.119
		c-0.093,0-0.087-0.086-0.175-0.09c-0.009-0.025-0.019-0.049-0.02-0.08C7.9,7.583,7.895,7.56,7.894,7.5
		c0.015,0.007,0.024,0.019,0.022,0.04c0.027-0.038,0.02-0.117,0.074-0.123C7.98,7.38,7.943,7.437,7.926,7.399
		C7.93,7.384,7.94,7.393,7.939,7.4C8,7.391,7.926,7.289,7.998,7.314C8.015,7.267,7.95,7.291,7.964,7.247
		C7.996,7.25,8.002,7.273,8.028,7.251C8.043,7.22,8.103,7.062,8.111,6.998z"/>
	<path fill-rule="evenodd" clip-rule="evenodd" fill="#FFFFFF" d="M9.678,7.554c-0.07-0.011,0.04,0.033,0.041-0.035
		c0.011,0.008,0.021,0.016,0.039,0.016C9.756,7.556,9.754,7.578,9.753,7.599c0.027-0.035,0.11-0.002,0.074,0.045
		C9.809,7.636,9.829,7.632,9.829,7.619C9.795,7.606,9.801,7.642,9.775,7.64c0.006,0.02,0.017,0.033,0.022,0.053
		c-0.009,0.02-0.015,0-0.013-0.014C9.758,7.675,9.743,7.687,9.744,7.715c-0.02-0.005-0.002-0.038-0.023-0.04
		c0.004-0.016,0.024-0.01,0.039-0.01C9.765,7.63,9.741,7.637,9.764,7.613c-0.016,0.01-0.035,0.015-0.064,0.009
		c-0.023,0.094-0.08,0.149-0.133,0.21C9.547,7.8,9.568,7.782,9.574,7.728C9.522,7.752,9.49,7.798,9.449,7.835
		c-0.041-0.061-0.041,0.031-0.105,0.02C9.373,7.81,9.343,7.806,9.338,7.763C9.271,7.769,9.249,7.814,9.191,7.817
		C9.189,7.839,9.206,7.845,9.201,7.87C9.186,7.867,9.178,7.871,9.174,7.88C9.148,7.858,9.215,7.837,9.167,7.802
		c0.003-0.016,0.024-0.01,0.04-0.01c-0.013-0.051-0.051,0.01-0.022-0.054c-0.065,0.021-0.028,0.02-0.062-0.044
		C9.168,7.66,9.189,7.718,9.21,7.741c0.05-0.023,0.05-0.14,0.127-0.134c0.001-0.031-0.022-0.041,0.017-0.05
		C9.338,7.539,9.295,7.514,9.289,7.552C9.245,7.527,9.328,7.534,9.307,7.488c0.049,0.055,0.075,0.03,0.154,0.025
		C9.46,7.521,9.459,7.531,9.459,7.539c0.035-0.01-0.008-0.049-0.022-0.053c0.06-0.029,0.11,0.097,0.181,0.013
		c0.011,0.022,0.044,0.049,0.04-0.011C9.676,7.501,9.672,7.531,9.678,7.554z"/>
	<path fill-rule="evenodd" clip-rule="evenodd" fill="#FFFFFF" d="M9.333,8.177c0.061-0.02,0.155-0.051,0.221,0.004
		c0.016-0.025,0.051-0.026,0.069-0.047c-0.084-0.004,0.03-0.009,0.08-0.046C9.7,8.103,9.705,8.111,9.714,8.115
		C9.68,8.158,9.695,8.164,9.72,8.207C9.694,8.199,9.686,8.212,9.668,8.215c0.005,0.03,0.021-0.015,0.038,0.016
		C9.683,8.275,9.672,8.333,9.631,8.355c0.01,0.013,0.022,0.021,0.038,0.029C9.654,8.41,9.648,8.444,9.612,8.445
		c0.005,0.027,0.029,0.039,0.02,0.079C9.603,8.518,9.584,8.523,9.578,8.546c0.005,0.019,0.018-0.004,0.039,0.002
		c-0.015,0.017-0.017,0.047-0.03,0.062C9.539,8.589,9.5,8.649,9.519,8.658C9.496,8.699,9.489,8.628,9.455,8.64
		C9.449,8.651,9.467,8.714,9.434,8.755C9.412,8.75,9.448,8.716,9.412,8.702C9.36,8.711,9.445,8.791,9.38,8.777
		c0.027,0.025,0.091,0.012,0.047,0.068C9.513,8.811,9.553,8.72,9.613,8.769c0.04-0.006-0.01-0.029,0.004-0.052
		C9.636,8.73,9.658,8.74,9.652,8.771c0.028-0.002,0.002-0.056-0.008-0.064C9.663,8.675,9.679,8.748,9.706,8.75
		C9.708,8.771,9.692,8.771,9.69,8.788C9.692,8.798,9.702,8.8,9.701,8.814c0.042,0.002,0.016-0.076,0.069-0.06
		c0.001,0.011-0.006,0.012-0.014,0.012c0.001,0.027,0.056,0.008,0.062,0.03c-0.056,0.023,0,0.055,0.006,0.092
		c-0.011-0.012-0.027-0.016-0.05-0.018C9.782,8.884,9.801,8.921,9.759,8.91c0.008,0.014,0.029,0.016,0.023,0.04
		c-0.034-0.006-0.041-0.03-0.041,0.022C9.725,8.966,9.723,8.949,9.705,8.945c0.006,0.051-0.064-0.022-0.068,0.046
		C9.518,8.978,9.544,8.91,9.43,8.975c0-0.022,0.019-0.026,0.018-0.05c-0.023,0.001-0.031,0.02-0.029,0.049
		c-0.057-0.022,0.004-0.076,0.02-0.102C9.431,8.842,9.391,8.84,9.391,8.804C9.373,8.835,9.406,8.853,9.383,8.919
		C9.35,8.9,9.345,8.875,9.355,8.931C9.309,8.91,9.279,8.935,9.242,8.896c0.009-0.009,0.022-0.033,0.002-0.038
		C9.237,8.867,9.23,8.917,9.19,8.88C9.188,8.894,9.191,8.904,9.201,8.907c-0.013,0.037-0.03-0.02-0.063-0.005
		c0.02-0.086-0.043-0.159-0.139-0.23C9.004,8.649,9.023,8.644,9.053,8.65C9.051,8.634,9.03,8.636,9.015,8.634
		c0.003-0.016,0.024-0.01,0.04-0.011C9.008,8.545,9.012,8.536,9.03,8.427c0.04,0.009,0.038-0.029,0.055-0.048
		C9.07,8.361,9.049,8.351,9.076,8.328C9.02,8.287,8.975,8.208,9.025,8.142c0.066,0.043,0.05-0.092,0.108-0.07
		c0.014-0.035-0.015-0.034-0.008-0.064C9.146,8.032,9.171,8.011,9.168,7.97C9.184,7.978,9.192,7.99,9.19,8.011
		c0.022-0.017,0.043-0.038,0.03-0.062c0-0.021,0.087-0.02,0.063,0.018c0.039-0.008-0.014-0.033,0.005-0.064
		c0.04,0.05,0.056,0.056,0.114,0.035c0.002,0.037,0.018,0.135-0.05,0.151c-0.02,0.04,0.041,0.013,0.021,0.054
		C9.351,8.165,9.332,8.116,9.333,8.177z"/>
	<path fill-rule="evenodd" clip-rule="evenodd" fill="#FFFFFF" d="M8.848,8.79C8.846,8.779,8.836,8.776,8.837,8.763
		C8.82,8.816,8.769,8.75,8.744,8.782c0.005,0.021,0.018-0.003,0.039,0.003c0.015,0.033-0.055,0.037-0.017,0.051
		C8.758,8.878,8.719,8.798,8.726,8.859C8.601,8.841,8.502,8.8,8.365,8.819c-0.006,0.045,0.043,0.044,0.06,0.069
		C8.403,8.914,8.357,8.859,8.352,8.831c-0.035,0.009,0.02,0.047-0.018,0.063c0.012-0.006,0.022-0.012,0.04-0.01
		C8.346,8.923,8.386,8.92,8.406,8.964C8.381,8.978,8.369,9,8.417,9.004C8.41,9.019,8.398,9.029,8.377,9.027
		C8.385,9.066,8.418,9.023,8.44,9.032C8.434,9.105,8.492,9.046,8.473,9.125C8.537,9.115,8.57,9.114,8.616,9.11
		C8.639,9.132,8.6,9.154,8.651,9.164C8.644,9.175,8.614,9.181,8.637,9.189C8.503,9.218,8.275,9.14,8.167,9.05
		c0.026,0.002,0.052,0.004,0.077,0.006C8.259,9.033,8.209,9.01,8.248,9.004c-0.019-0.048-0.09-0.052-0.082-0.122
		C8.126,8.884,8.123,8.939,8.102,8.89C8.086,8.891,8.089,8.913,8.085,8.927c-0.038-0.012-0.039,0.02-0.078,0.008
		c0.022-0.022-0.173-0.039-0.104-0.164c0.047,0.009,0.07,0.037,0.072,0.084c0.043-0.03,0.049-0.037,0.045-0.088
		c0.019,0.008,0.031,0.021,0.05,0.029c0.011-0.002,0.014-0.012,0.026-0.01C8.081,8.767,8.06,8.757,8.087,8.734
		C8.11,8.779,8.113,8.745,8.151,8.738C8.146,8.726,8.142,8.714,8.128,8.71C8.134,8.683,8.188,8.712,8.177,8.74
		C8.198,8.736,8.191,8.701,8.23,8.718c0.006-0.025,0-0.041-0.023-0.041c0.006-0.025,0.059,0.002,0.055-0.035
		C8.284,8.654,8.263,8.666,8.26,8.681c0.088-0.059,0.133-0.048,0.22,0.004C8.496,8.695,8.534,8.628,8.504,8.7
		C8.541,8.677,8.571,8.647,8.613,8.63C8.65,8.634,8.668,8.687,8.679,8.622c0.019,0.071,0.1-0.05,0.114,0.021
		c0.038-0.032,0.08-0.058,0.135-0.067c0.013,0.025,0.012,0.062,0.02,0.092c-0.027-0.01-0.02,0.023-0.04,0.023
		c0.001,0.026,0.032,0.027,0.048,0.042C8.915,8.769,8.961,8.821,8.897,8.82c0.001-0.033-0.021-0.043,0.005-0.064
		c-0.04-0.01-0.039,0.029-0.056,0.047C8.832,8.799,8.84,8.789,8.848,8.79z"/>
	<path fill-rule="evenodd" clip-rule="evenodd" fill="#FFFFFF" d="M7.513,17.363c0.002-0.021-0.007-0.033-0.022-0.041
		c-0.023,0.021-0.001,0.035-0.02,0.077c0.008,0.019,0.026,0.026,0.05,0.03c-0.017,0.051-0.018,0.054,0.005,0.104
		c-0.021,0.002-0.021-0.014-0.037-0.016c-0.015,0.041,0.041,0.021,0.049,0.042c-0.023,0.093-0.04,0.116-0.057,0.229
		c-0.076-0.007-0.029,0.058-0.109,0.082c0.049,0.064-0.108,0.111-0.037,0.153c-0.029,0.009-0.032,0.046-0.068,0.047
		c0.002,0.026,0.033,0.028,0.049,0.042c-0.045,0.053-0.027,0.146-0.057,0.23c0.023,0.002,0.029-0.015,0.053-0.01
		c-0.037,0.111-0.081,0.203-0.1,0.291c0.002,0.015,0.023,0.012,0.039,0.016c0.034,0.07-0.061,0.135,0.001,0.155
		c-0.018,0.026-0.04,0.048-0.058,0.073c0.035,0.018,0.039,0.12,0.002,0.156c0.045,0.011,0.047-0.059,0.079-0.02
		c-0.054,0.023-0.033,0.103-0.089,0.148c0.061,0.01,0.059,0.098,0.014,0.156c0.002,0.02,0.039,0.008,0.037,0.029
		c0.045-0.025,0.033-0.191,0.078-0.163c0.025-0.044-0.007-0.032-0.008-0.079c0.042,0.018,0.022-0.038,0.03-0.062
		c0.039,0.015-0.009,0.104,0.044,0.107c-0.037,0.063,0.019,0.125-0.038,0.166c0.038,0.018-0.005,0.031,0.021,0.053
		c-0.003,0.016-0.024,0.01-0.039,0.01c0.033,0.029,0.01,0.064-0.021,0.09c0.005,0.02,0.018-0.004,0.039,0.003
		c-0.024,0.031,0.017,0.052-0.029,0.05c0.002,0.027,0.032,0.028,0.049,0.043c-0.039,0.086-0.112,0.139-0.12,0.224
		c0.002,0.019,0.031,0.013,0.05,0.017c0.003,0.055-0.047,0.03-0.064,0.008c0.009,0.043-0.097,0.025-0.099,0.098
		c0.055,0.048,0.082-0.055,0.122-0.069c0.048,0.076-0.09,0.212-0.011,0.323c-0.06,0.027-0.025,0.075-0.062,0.125
		c0.023,0.022,0.066-0.006,0.035,0.055c0.014-0.008,0.016-0.029,0.041-0.023c-0.043,0.028-0.018,0.061-0.022,0.115
		c0.052-0.025,0.033,0.031,0.089,0.033c-0.023,0.015-0.072,0.027-0.092,0.006c0.027,0.078-0.047-0.012-0.017,0.063
		c-0.104,0.001-0.112,0.138-0.203,0.114c0.017,0.006,0.056,0.021,0.046,0.082c0.063,0,0.084-0.029,0.07-0.086
		c0.038-0.034,0.063,0.005,0.105-0.018c0.021,0.012-0.047,0.037-0.08,0.032c0.003,0.018,0.031,0.013,0.051,0.017
		c-0.047,0.029,0.006,0.09-0.059,0.087c0.006,0.019,0.018,0.032,0.036,0.041c-0.018,0.041-0.063,0.05-0.084,0.085
		c0.071,0.025-0.079,0.133-0.104,0.187c-0.004,0.008,0.022,0.03,0.023,0.027c-0.006,0.014-0.035,0.013-0.041,0.023
		c-0.033,0.067-0.016,0.181-0.116,0.173c-0.004,0.023,0.014,0.027,0.009,0.053c-0.032-0.023-0.039-0.018-0.027,0.023
		c-0.049,0.008-0.071,0.047-0.121,0.056c-0.001-0.011,0.006-0.012,0.015-0.012c0.038-0.009-0.028-0.022-0.01-0.053
		c0.048-0.006,0.056-0.065,0.047-0.101c0.068,0.029,0.042-0.088,0.09-0.174c-0.022,0.02-0.056,0.027-0.057,0.073
		c-0.026-0.003-0.015-0.036-0.05-0.03c0.01-0.062,0.037-0.041,0.006-0.09c0.037,0.005,0.035-0.034,0.057-0.048
		c-0.071-0.013-0.002-0.024,0.018-0.076c0.003-0.036-0.037,0.028-0.023-0.028c-0.053,0.07-0.193,0.239-0.275,0.227
		c-0.024,0.054-0.041-0.059-0.051-0.017c0.006-0.054,0.025-0.119,0.09-0.162c-0.014-0.081-0.012-0.125-0.064-0.187
		c0.023-0.035,0.054-0.097-0.004-0.117c0.036-0.119,0.05-0.186,0.088-0.305c0.022,0.004,0.027-0.014,0.052-0.009
		c-0.014-0.017-0.011-0.046-0.007-0.078c0.039,0.036-0.001-0.032,0.055-0.034c-0.012-0.02-0.033-0.028-0.035-0.055
		c-0.026-0.002-0.02,0.033-0.054,0.021c-0.006-0.028,0.039-0.038-0.01-0.039c0.019-0.02,0.064-0.01,0.08-0.033
		c-0.029-0.068,0.038-0.129,0.065-0.177c-0.06-0.081,0.036-0.188-0.006-0.272c0.009,0.008,0.02,0.016,0.037,0.016
		c-0.012-0.131-0.151-0.246-0.015-0.325c-0.049-0.015,0.006-0.095,0.03-0.062c-0.008-0.053,0.006-0.1,0.061-0.113
		c-0.001-0.016-0.023-0.013-0.037-0.016c0.072-0.186,0.13-0.396,0.234-0.54c-0.062-0.081,0.003-0.22-0.033-0.274
		c0.024-0.116,0.122-0.205,0.035-0.283c0.04-0.074,0.014-0.096,0.013-0.18c0.063,0,0.011-0.069,0.071-0.086
		c-0.008-0.014-0.028-0.016-0.022-0.041c0.021-0.004,0.014-0.039,0.054-0.021c-0.011-0.012-0.006-0.036-0.023-0.041
		c0.063-0.014,0.067-0.148,0.062-0.138c0.041-0.079,0.127-0.121,0.148-0.249c0.095,0.027,0.078-0.076,0.16-0.065
		c0.006-0.034-0.073,0.007-0.049-0.042c0.018,0.039,0.074-0.055,0.062,0.03c0.041-0.023-0.003-0.115,0.021-0.128
		c0.014,0.001,0.026,0.002,0.039,0.003c-0.008,0.101-0.068,0.174-0.046,0.269c-0.015-0.003-0.022,0.001-0.026,0.012
		C7.497,17.373,7.506,17.363,7.513,17.363z"/>
	<path fill-rule="evenodd" clip-rule="evenodd" fill="#FFFFFF" d="M11.266,18.847c0.01,0.007,0.021,0.014,0.038,0.016
		c-0.008,0.01-0.016,0.02-0.016,0.037c0.042-0.004,0.025-0.025,0.041-0.035c0.059-0.014-0.011,0.066,0.024,0.027
		c0.023,0.007-0.004,0.059,0.048,0.043c-0.007,0.015-0.019,0.024-0.04,0.022c0.013,0.029,0.048,0.032,0.064,0.005
		c0.025,0.025-0.015,0.061,0.062,0.043c-0.031,0.007-0.046,0.068,0.008,0.065c-0.014,0.038-0.078,0.058-0.056,0.062
		c-0.046,0.002-0.173-0.018-0.242-0.058c-0.037-0.006-0.047,0.021-0.068,0.034c0.012,0.03,0.043-0.035,0.08-0.021
		c-0.007,0.07,0.067,0.071,0.109,0.099c-0.01,0.078,0.007,0.058,0.031,0.106c-0.088,0.011-0.094-0.048-0.151-0.063
		c-0.005-0.029,0.026-0.016,0.028-0.036c-0.002-0.011-0.012-0.015-0.01-0.026c-0.024,0-0.012,0.043-0.03,0.049
		c-0.046-0.016-0.005-0.039-0.007-0.078c-0.039-0.013-0.02,0.043-0.067,0.021c0.003-0.049-0.011-0.038,0.006-0.078
		c-0.026,0.002-0.044,0.072-0.038-0.002c-0.014,0.008-0.016,0.028-0.041,0.022c0.002-0.013,0.002-0.026,0.003-0.038
		c-0.018,0.019-0.068-0.006-0.036-0.029c-0.017,0.004-0.028,0.015-0.029,0.037c-0.053-0.021-0.038-0.025-0.101-0.033
		c0.026-0.021,0.071-0.094,0.06-0.113c0.039,0.004,0.049-0.049,0.132-0.029c-0.056-0.039-0.028-0.077-0.082-0.122
		c0.114-0.014,0.128,0.038,0.218,0.042C11.169,18.822,11.275,18.88,11.266,18.847z"/>
	<path fill-rule="evenodd" clip-rule="evenodd" fill="#FFFFFF" d="M10.451,19.863c0.039,0.011-0.014,0.026-0.004,0.051
		c0.044-0.016,0.037,0.006,0.062,0.031c0.031-0.002,0.057-0.01,0.068-0.035c0.091,0.098,0.135,0.131,0.189,0.234
		c-0.057-0.006,0.004,0.037-0.029,0.051c-0.113,0.012-0.154-0.037-0.267-0.072c-0.013,0.006-0.024,0.01-0.028,0.024
		c0.062,0.055,0.164,0.075,0.21,0.146c0.019-0.041-0.041-0.014-0.022-0.055c0.034,0.01,0.129,0.076,0.072,0.084
		c0.01,0.035,0.041-0.016,0.077,0.006c0.012,0.055,0.031,0.132,0.079,0.148c-0.012,0.018-0.034,0.025-0.065,0.021
		c0.017,0.038,0.065,0.048,0.07,0.097c-0.021,0.037-0.075-0.044-0.079,0.02c-0.038-0.012,0.015-0.027,0.004-0.052
		c-0.027,0.002-0.029,0.032-0.043,0.05c-0.042,0.008-0.038-0.023-0.062-0.031c-0.021,0.01,0.002,0.02-0.017,0.051
		c-0.024,0-0.044,0.005-0.054,0.021c-0.036-0.078-0.135-0.042-0.174-0.104c-0.003-0.022,0.012-0.023,0.027-0.023
		c-0.012-0.021-0.039-0.03-0.033-0.068c-0.023,0.055,0.004,0.041-0.068,0.047c0.014-0.012,0.027-0.023,0.041-0.035
		c-0.001-0.016-0.021-0.013-0.037-0.016c-0.006-0.029,0.025-0.017,0.028-0.037c-0.02-0.01-0.08-0.049-0.082-0.109
		c-0.044,0.024-0.055-0.084-0.14-0.05c0.048-0.051,0.029-0.096,0.072-0.099c-0.033-0.088,0.006-0.068-0.002-0.155
		C10.38,20.021,10.451,19.96,10.451,19.863z"/>
	<path fill-rule="evenodd" clip-rule="evenodd" fill="#FFFFFF" d="M10.717,21.178c-0.054,0.048-0.014,0.046-0.034,0.114
		c-0.021,0-0.049-0.01-0.052,0.01c-0.003,0.004,0.078,0.012,0.011,0.025c-0.007,0.034,0.072-0.006,0.048,0.043
		c-0.047,0.025-0.04-0.03-0.076-0.006c0.014,0.02,0.06,0.041,0.008,0.053c0.049,0.022,0.052,0.084,0.096,0.111
		c-0.01,0.01-0.016,0.027-0.017,0.05c-0.032-0.036-0.114-0.03-0.109-0.099c-0.106-0.025-0.153-0.205-0.279-0.254
		c-0.001-0.029,0.007-0.049,0.029-0.05c-0.001-0.022-0.02-0.031-0.049-0.03c0.019-0.061,0.001-0.06,0.021-0.102
		c-0.027-0.013-0.025-0.051-0.061-0.057c0.007-0.01,0.015-0.02,0.016-0.037c0.011,0.008,0.021,0.018,0.025,0.002
		c0.011,0.009,0.05,0.072,0.051,0.017c0.117,0.085,0.203,0.136,0.323,0.179c-0.069-0.082-0.17-0.143-0.233-0.172
		c-0.026-0.099,0.14,0.016,0.167,0.025c0.014,0.004,0.032-0.057,0.024,0.014c0.023,0.004,0.029-0.014,0.053-0.008
		c0.058,0.084,0.141,0.18,0.176,0.246c0.008,0.034-0.094,0.051-0.029,0.062C10.755,21.302,10.749,21.263,10.717,21.178z"/>
	<path fill-rule="evenodd" clip-rule="evenodd" fill="#515959" d="M8.271,24.082c0.006,0.045-0.027,0.02-0.039,0.011
		c-0.007,0.087,0.079,0.013,0.104,0.007c-0.008,0.011-0.015,0.021-0.016,0.039c0.043,0.013,0.02-0.052,0.066-0.034
		c-0.016,0.069,0.066-0.04,0.05,0.029c0.026-0.003,0.026-0.035,0.067-0.021c-0.026-0.055-0.062-0.102-0.065-0.174
		c0.152,0.027,0.19,0.061,0.315,0.114c-0.027-0.067-0.057-0.057-0.067-0.135c-0.058,0.03-0.021-0.031-0.062-0.044
		c0.061-0.033,0.072,0.052,0.154,0.024c-0.011,0.077,0.105,0.046,0.107,0.112c0.114-0.033,0.216-0.08,0.267-0.098
		c0.014-0.037,0.041,0.012,0.064,0.006c-0.165,0.162-0.376,0.273-0.598,0.37c-0.025,0.085-0.047,0.097-0.026,0.18
		c-0.047-0.017-0.076,0.009-0.076-0.032c-0.352,0.086-0.833,0.023-1.163,0.135c0.014-0.035-0.016-0.035-0.009-0.065
		c0.047,0.038-0.011-0.034,0.055-0.022c-0.043-0.025-0.011-0.047,0.017-0.063c-0.044-0.016-0.021-0.003-0.033-0.067
		c0.036,0.059,0.06-0.047,0.06-0.1c0.031,0.004,0.038,0.028,0.053-0.009c0.032,0.028,0.066,0.074,0.091,0.163
		c0.053,0.005,0.085-0.014,0.171-0.027c-0.046,0.059,0.068-0.031,0.032-0.088c0.041,0.062,0.103-0.055,0.071-0.085
		c0.091-0.01,0.214,0.08,0.302,0.126c0.032-0.021,0.001-0.089-0.032-0.094c0.012-0.021,0.023,0,0.039,0.004
		c-0.039-0.066-0.01-0.068-0.03-0.119C8.195,24.125,8.211,24.076,8.271,24.082z"/>
</g>
</svg>
